<mxfile host="app.diagrams.net" modified="2021-04-27T14:03:27.770Z" agent="5.0 (Windows NT 10.0; WOW64) AppleWebKit/537.36 (KHTML, like Gecko) Chrome/69.0.3947.100 Safari/537.36" etag="Ec7EpuGWTmObOonLpQ_s" version="14.6.0" type="github">
  <diagram id="E3ufko9YMLtECHKIhZbL" name="Page-1">
    <mxGraphModel dx="1796" dy="600" grid="1" gridSize="10" guides="1" tooltips="1" connect="1" arrows="1" fold="1" page="1" pageScale="1" pageWidth="827" pageHeight="1169" math="0" shadow="0">
      <root>
        <mxCell id="0" />
        <mxCell id="1" parent="0" />
        <mxCell id="R7jOZi8u6bVQH4sRsnp8-44" value="" style="edgeStyle=orthogonalEdgeStyle;rounded=1;orthogonalLoop=1;jettySize=auto;html=1;" parent="1" source="R7jOZi8u6bVQH4sRsnp8-42" target="R7jOZi8u6bVQH4sRsnp8-43" edge="1">
          <mxGeometry relative="1" as="geometry" />
        </mxCell>
        <mxCell id="R7jOZi8u6bVQH4sRsnp8-42" value="" style="shape=cube;whiteSpace=wrap;html=1;boundedLbl=1;backgroundOutline=1;darkOpacity=0.05;darkOpacity2=0.1;fillColor=#dae8fc;strokeColor=#6c8ebf;" parent="1" vertex="1">
          <mxGeometry x="-140" y="270" width="30" height="50" as="geometry" />
        </mxCell>
        <mxCell id="R7jOZi8u6bVQH4sRsnp8-46" value="" style="edgeStyle=orthogonalEdgeStyle;rounded=1;orthogonalLoop=1;jettySize=auto;html=1;" parent="1" source="R7jOZi8u6bVQH4sRsnp8-43" target="R7jOZi8u6bVQH4sRsnp8-45" edge="1">
          <mxGeometry relative="1" as="geometry" />
        </mxCell>
        <mxCell id="R7jOZi8u6bVQH4sRsnp8-43" value="" style="shape=cube;whiteSpace=wrap;html=1;boundedLbl=1;backgroundOutline=1;darkOpacity=0.05;darkOpacity2=0.1;fillColor=#dae8fc;strokeColor=#6c8ebf;" parent="1" vertex="1">
          <mxGeometry x="-140" y="400" width="30" height="50" as="geometry" />
        </mxCell>
        <mxCell id="R7jOZi8u6bVQH4sRsnp8-48" value="" style="edgeStyle=orthogonalEdgeStyle;rounded=1;orthogonalLoop=1;jettySize=auto;html=1;" parent="1" source="R7jOZi8u6bVQH4sRsnp8-45" target="R7jOZi8u6bVQH4sRsnp8-47" edge="1">
          <mxGeometry relative="1" as="geometry" />
        </mxCell>
        <mxCell id="R7jOZi8u6bVQH4sRsnp8-57" style="edgeStyle=orthogonalEdgeStyle;rounded=1;orthogonalLoop=1;jettySize=auto;html=1;exitX=0;exitY=0;exitDx=30;exitDy=35;exitPerimeter=0;entryX=0;entryY=0.5;entryDx=0;entryDy=0;fillColor=#ffe6cc;strokeColor=#FFCE9F;strokeWidth=2;" parent="1" source="R7jOZi8u6bVQH4sRsnp8-45" edge="1">
          <mxGeometry relative="1" as="geometry">
            <mxPoint x="-40" y="565" as="targetPoint" />
          </mxGeometry>
        </mxCell>
        <mxCell id="R7jOZi8u6bVQH4sRsnp8-45" value="" style="shape=cube;whiteSpace=wrap;html=1;boundedLbl=1;backgroundOutline=1;darkOpacity=0.05;darkOpacity2=0.1;fillColor=#dae8fc;strokeColor=#6c8ebf;" parent="1" vertex="1">
          <mxGeometry x="-140" y="530" width="30" height="50" as="geometry" />
        </mxCell>
        <mxCell id="R7jOZi8u6bVQH4sRsnp8-50" value="" style="edgeStyle=orthogonalEdgeStyle;rounded=1;orthogonalLoop=1;jettySize=auto;html=1;" parent="1" source="R7jOZi8u6bVQH4sRsnp8-47" target="R7jOZi8u6bVQH4sRsnp8-49" edge="1">
          <mxGeometry relative="1" as="geometry" />
        </mxCell>
        <mxCell id="R7jOZi8u6bVQH4sRsnp8-56" style="edgeStyle=orthogonalEdgeStyle;rounded=1;orthogonalLoop=1;jettySize=auto;html=1;exitX=0;exitY=0;exitDx=30;exitDy=35;exitPerimeter=0;entryX=0;entryY=0.5;entryDx=0;entryDy=0;fillColor=#ffe6cc;strokeColor=#FFCE9F;strokeWidth=2;" parent="1" source="R7jOZi8u6bVQH4sRsnp8-47" target="R7jOZi8u6bVQH4sRsnp8-52" edge="1">
          <mxGeometry relative="1" as="geometry" />
        </mxCell>
        <mxCell id="R7jOZi8u6bVQH4sRsnp8-47" value="" style="shape=cube;whiteSpace=wrap;html=1;boundedLbl=1;backgroundOutline=1;darkOpacity=0.05;darkOpacity2=0.1;fillColor=#dae8fc;strokeColor=#6c8ebf;" parent="1" vertex="1">
          <mxGeometry x="-140" y="660" width="30" height="50" as="geometry" />
        </mxCell>
        <mxCell id="R7jOZi8u6bVQH4sRsnp8-55" style="edgeStyle=orthogonalEdgeStyle;rounded=1;orthogonalLoop=1;jettySize=auto;html=1;exitX=0;exitY=0;exitDx=30;exitDy=35;exitPerimeter=0;entryX=0;entryY=0.5;entryDx=0;entryDy=0;fillColor=#ffe6cc;strokeColor=#FFCE9F;strokeWidth=2;" parent="1" source="R7jOZi8u6bVQH4sRsnp8-49" target="R7jOZi8u6bVQH4sRsnp8-53" edge="1">
          <mxGeometry relative="1" as="geometry" />
        </mxCell>
        <mxCell id="R7jOZi8u6bVQH4sRsnp8-49" value="" style="shape=cube;whiteSpace=wrap;html=1;boundedLbl=1;backgroundOutline=1;darkOpacity=0.05;darkOpacity2=0.1;fillColor=#dae8fc;strokeColor=#6c8ebf;" parent="1" vertex="1">
          <mxGeometry x="-140" y="790" width="30" height="50" as="geometry" />
        </mxCell>
        <mxCell id="ZAxafMs7CnMFeSQ5WiWw-7" style="edgeStyle=orthogonalEdgeStyle;rounded=0;orthogonalLoop=1;jettySize=auto;html=1;exitX=1;exitY=0.5;exitDx=0;exitDy=0;entryX=0.5;entryY=0;entryDx=0;entryDy=0;fillColor=#ffe6cc;strokeColor=#FFCE9F;strokeWidth=3;" edge="1" parent="1" target="ZAxafMs7CnMFeSQ5WiWw-5">
          <mxGeometry relative="1" as="geometry">
            <mxPoint x="20" y="565" as="sourcePoint" />
          </mxGeometry>
        </mxCell>
        <mxCell id="ZAxafMs7CnMFeSQ5WiWw-8" style="edgeStyle=orthogonalEdgeStyle;rounded=0;orthogonalLoop=1;jettySize=auto;html=1;exitX=1;exitY=0.5;exitDx=0;exitDy=0;entryX=0;entryY=0.5;entryDx=0;entryDy=0;fillColor=#ffe6cc;strokeColor=#FFCE9F;strokeWidth=3;" edge="1" parent="1" source="R7jOZi8u6bVQH4sRsnp8-52" target="ZAxafMs7CnMFeSQ5WiWw-5">
          <mxGeometry relative="1" as="geometry" />
        </mxCell>
        <mxCell id="R7jOZi8u6bVQH4sRsnp8-52" value="DEM" style="rounded=1;whiteSpace=wrap;html=1;fillColor=#ffe6cc;strokeColor=#FFCE9F;strokeWidth=3;" parent="1" vertex="1">
          <mxGeometry x="-34" y="680" width="60" height="30" as="geometry" />
        </mxCell>
        <mxCell id="ZAxafMs7CnMFeSQ5WiWw-9" style="edgeStyle=orthogonalEdgeStyle;rounded=0;orthogonalLoop=1;jettySize=auto;html=1;exitX=1;exitY=0.5;exitDx=0;exitDy=0;fillColor=#ffe6cc;strokeWidth=3;strokeColor=#FAD7AC;" edge="1" parent="1" source="R7jOZi8u6bVQH4sRsnp8-53" target="ZAxafMs7CnMFeSQ5WiWw-5">
          <mxGeometry relative="1" as="geometry" />
        </mxCell>
        <mxCell id="R7jOZi8u6bVQH4sRsnp8-53" value="D-ASPP" style="rounded=1;whiteSpace=wrap;html=1;fillColor=#fff2cc;strokeColor=#FAD7AC;strokeWidth=3;" parent="1" vertex="1">
          <mxGeometry x="-36" y="810" width="60" height="30" as="geometry" />
        </mxCell>
        <mxCell id="R7jOZi8u6bVQH4sRsnp8-70" value="conv1" style="text;html=1;resizable=0;autosize=1;align=center;verticalAlign=middle;points=[];fillColor=none;strokeColor=none;rounded=0;" parent="1" vertex="1">
          <mxGeometry x="-190" y="280" width="50" height="20" as="geometry" />
        </mxCell>
        <mxCell id="R7jOZi8u6bVQH4sRsnp8-71" value="conv2&lt;span style=&quot;color: rgba(0 , 0 , 0 , 0) ; font-family: monospace ; font-size: 0px&quot;&gt;%3CmxGraphModel%3E%3Croot%3E%3CmxCell%20id%3D%220%22%2F%3E%3CmxCell%20id%3D%221%22%20parent%3D%220%22%2F%3E%3CmxCell%20id%3D%222%22%20value%3D%22conv1%22%20style%3D%22text%3Bhtml%3D1%3Bresizable%3D0%3Bautosize%3D1%3Balign%3Dcenter%3BverticalAlign%3Dmiddle%3Bpoints%3D%5B%5D%3BfillColor%3Dnone%3BstrokeColor%3Dnone%3Brounded%3D0%3B%22%20vertex%3D%221%22%20parent%3D%221%22%3E%3CmxGeometry%20x%3D%22-10%22%20y%3D%22290%22%20width%3D%2250%22%20height%3D%2220%22%20as%3D%22geometry%22%2F%3E%3C%2FmxCell%3E%3C%2Froot%3E%3C%2FmxGraphModel%3E&lt;/span&gt;" style="text;html=1;resizable=0;autosize=1;align=center;verticalAlign=middle;points=[];fillColor=none;strokeColor=none;rounded=0;" parent="1" vertex="1">
          <mxGeometry x="-190" y="410" width="50" height="20" as="geometry" />
        </mxCell>
        <mxCell id="R7jOZi8u6bVQH4sRsnp8-72" value="conv3&lt;span style=&quot;color: rgba(0 , 0 , 0 , 0) ; font-family: monospace ; font-size: 0px&quot;&gt;%3CmxGraphModel%3E%3Croot%3E%3CmxCell%20id%3D%220%22%2F%3E%3CmxCell%20id%3D%221%22%20parent%3D%220%22%2F%3E%3CmxCell%20id%3D%222%22%20value%3D%22conv1%22%20style%3D%22text%3Bhtml%3D1%3Bresizable%3D0%3Bautosize%3D1%3Balign%3Dcenter%3BverticalAlign%3Dmiddle%3Bpoints%3D%5B%5D%3BfillColor%3Dnone%3BstrokeColor%3Dnone%3Brounded%3D0%3B%22%20vertex%3D%221%22%20parent%3D%221%22%3E%3CmxGeometry%20x%3D%22-10%22%20y%3D%22290%22%20width%3D%2250%22%20height%3D%2220%22%20as%3D%22geometry%22%2F%3E%3C%2FmxCell%3E%3C%2Froot%3E%3C%2FmxGraphModel%3E&lt;/span&gt;" style="text;html=1;resizable=0;autosize=1;align=center;verticalAlign=middle;points=[];fillColor=none;strokeColor=none;rounded=0;" parent="1" vertex="1">
          <mxGeometry x="-190" y="540" width="50" height="20" as="geometry" />
        </mxCell>
        <mxCell id="R7jOZi8u6bVQH4sRsnp8-73" value="conv4&lt;span style=&quot;color: rgba(0 , 0 , 0 , 0) ; font-family: monospace ; font-size: 0px&quot;&gt;%3CmxGraphModel%3E%3Croot%3E%3CmxCell%20id%3D%220%22%2F%3E%3CmxCell%20id%3D%221%22%20parent%3D%220%22%2F%3E%3CmxCell%20id%3D%222%22%20value%3D%22conv1%22%20style%3D%22text%3Bhtml%3D1%3Bresizable%3D0%3Bautosize%3D1%3Balign%3Dcenter%3BverticalAlign%3Dmiddle%3Bpoints%3D%5B%5D%3BfillColor%3Dnone%3BstrokeColor%3Dnone%3Brounded%3D0%3B%22%20vertex%3D%221%22%20parent%3D%221%22%3E%3CmxGeometry%20x%3D%22-10%22%20y%3D%22290%22%20width%3D%2250%22%20height%3D%2220%22%20as%3D%22geometry%22%2F%3E%3C%2FmxCell%3E%3C%2Froot%3E%3C%2FmxGraphModel%3E&lt;/span&gt;" style="text;html=1;resizable=0;autosize=1;align=center;verticalAlign=middle;points=[];fillColor=none;strokeColor=none;rounded=0;" parent="1" vertex="1">
          <mxGeometry x="-190" y="670" width="50" height="20" as="geometry" />
        </mxCell>
        <mxCell id="R7jOZi8u6bVQH4sRsnp8-74" value="conv5&lt;span style=&quot;color: rgba(0 , 0 , 0 , 0) ; font-family: monospace ; font-size: 0px&quot;&gt;%3CmxGraphModel%3E%3Croot%3E%3CmxCell%20id%3D%220%22%2F%3E%3CmxCell%20id%3D%221%22%20parent%3D%220%22%2F%3E%3CmxCell%20id%3D%222%22%20value%3D%22conv1%22%20style%3D%22text%3Bhtml%3D1%3Bresizable%3D0%3Bautosize%3D1%3Balign%3Dcenter%3BverticalAlign%3Dmiddle%3Bpoints%3D%5B%5D%3BfillColor%3Dnone%3BstrokeColor%3Dnone%3Brounded%3D0%3B%22%20vertex%3D%221%22%20parent%3D%221%22%3E%3CmxGeometry%20x%3D%22-10%22%20y%3D%22290%22%20width%3D%2250%22%20height%3D%2220%22%20as%3D%22geometry%22%2F%3E%3C%2FmxCell%3E%3C%2Froot%3E%3C%2FmxGraphModel%3E&lt;/span&gt;" style="text;html=1;resizable=0;autosize=1;align=center;verticalAlign=middle;points=[];fillColor=none;strokeColor=none;rounded=0;" parent="1" vertex="1">
          <mxGeometry x="-190" y="795" width="50" height="20" as="geometry" />
        </mxCell>
        <mxCell id="R7jOZi8u6bVQH4sRsnp8-78" value="" style="edgeStyle=orthogonalEdgeStyle;rounded=1;orthogonalLoop=1;jettySize=auto;html=1;" parent="1" source="R7jOZi8u6bVQH4sRsnp8-76" target="R7jOZi8u6bVQH4sRsnp8-77" edge="1">
          <mxGeometry relative="1" as="geometry" />
        </mxCell>
        <mxCell id="R7jOZi8u6bVQH4sRsnp8-76" value="" style="shape=cube;whiteSpace=wrap;html=1;boundedLbl=1;backgroundOutline=1;darkOpacity=0.05;darkOpacity2=0.1;fillColor=#dae8fc;strokeColor=#6c8ebf;" parent="1" vertex="1">
          <mxGeometry x="710" y="280" width="30" height="50" as="geometry" />
        </mxCell>
        <mxCell id="R7jOZi8u6bVQH4sRsnp8-80" value="" style="edgeStyle=orthogonalEdgeStyle;rounded=1;orthogonalLoop=1;jettySize=auto;html=1;" parent="1" source="R7jOZi8u6bVQH4sRsnp8-77" target="R7jOZi8u6bVQH4sRsnp8-79" edge="1">
          <mxGeometry relative="1" as="geometry" />
        </mxCell>
        <mxCell id="R7jOZi8u6bVQH4sRsnp8-99" style="edgeStyle=orthogonalEdgeStyle;rounded=1;orthogonalLoop=1;jettySize=auto;html=1;exitX=0;exitY=0;exitDx=0;exitDy=15;exitPerimeter=0;strokeColor=#000000;entryX=1;entryY=0.5;entryDx=0;entryDy=0;" parent="1" source="R7jOZi8u6bVQH4sRsnp8-77" target="R7jOZi8u6bVQH4sRsnp8-91" edge="1">
          <mxGeometry relative="1" as="geometry">
            <mxPoint x="680" y="425.0952380952381" as="targetPoint" />
          </mxGeometry>
        </mxCell>
        <mxCell id="R7jOZi8u6bVQH4sRsnp8-77" value="" style="shape=cube;whiteSpace=wrap;html=1;boundedLbl=1;backgroundOutline=1;darkOpacity=0.05;darkOpacity2=0.1;fillColor=#dae8fc;strokeColor=#6c8ebf;" parent="1" vertex="1">
          <mxGeometry x="710" y="410" width="30" height="50" as="geometry" />
        </mxCell>
        <mxCell id="R7jOZi8u6bVQH4sRsnp8-82" value="" style="edgeStyle=orthogonalEdgeStyle;rounded=1;orthogonalLoop=1;jettySize=auto;html=1;" parent="1" source="R7jOZi8u6bVQH4sRsnp8-79" target="R7jOZi8u6bVQH4sRsnp8-81" edge="1">
          <mxGeometry relative="1" as="geometry" />
        </mxCell>
        <mxCell id="R7jOZi8u6bVQH4sRsnp8-100" style="edgeStyle=orthogonalEdgeStyle;rounded=1;orthogonalLoop=1;jettySize=auto;html=1;exitX=0;exitY=0;exitDx=0;exitDy=15;exitPerimeter=0;entryX=1;entryY=0.5;entryDx=0;entryDy=0;strokeColor=#000000;" parent="1" source="R7jOZi8u6bVQH4sRsnp8-79" target="R7jOZi8u6bVQH4sRsnp8-89" edge="1">
          <mxGeometry relative="1" as="geometry" />
        </mxCell>
        <mxCell id="R7jOZi8u6bVQH4sRsnp8-79" value="" style="shape=cube;whiteSpace=wrap;html=1;boundedLbl=1;backgroundOutline=1;darkOpacity=0.05;darkOpacity2=0.1;fillColor=#dae8fc;strokeColor=#6c8ebf;" parent="1" vertex="1">
          <mxGeometry x="710" y="540" width="30" height="50" as="geometry" />
        </mxCell>
        <mxCell id="R7jOZi8u6bVQH4sRsnp8-84" value="" style="edgeStyle=orthogonalEdgeStyle;rounded=1;orthogonalLoop=1;jettySize=auto;html=1;" parent="1" source="R7jOZi8u6bVQH4sRsnp8-81" target="R7jOZi8u6bVQH4sRsnp8-83" edge="1">
          <mxGeometry relative="1" as="geometry" />
        </mxCell>
        <mxCell id="R7jOZi8u6bVQH4sRsnp8-101" style="edgeStyle=orthogonalEdgeStyle;rounded=1;orthogonalLoop=1;jettySize=auto;html=1;exitX=0;exitY=0;exitDx=0;exitDy=15;exitPerimeter=0;strokeColor=#000000;" parent="1" source="R7jOZi8u6bVQH4sRsnp8-81" target="R7jOZi8u6bVQH4sRsnp8-87" edge="1">
          <mxGeometry relative="1" as="geometry" />
        </mxCell>
        <mxCell id="R7jOZi8u6bVQH4sRsnp8-81" value="" style="shape=cube;whiteSpace=wrap;html=1;boundedLbl=1;backgroundOutline=1;darkOpacity=0.05;darkOpacity2=0.1;fillColor=#dae8fc;strokeColor=#6c8ebf;" parent="1" vertex="1">
          <mxGeometry x="710" y="670" width="30" height="50" as="geometry" />
        </mxCell>
        <mxCell id="R7jOZi8u6bVQH4sRsnp8-102" style="edgeStyle=orthogonalEdgeStyle;rounded=1;orthogonalLoop=1;jettySize=auto;html=1;exitX=0;exitY=0;exitDx=0;exitDy=15;exitPerimeter=0;entryX=1;entryY=0.5;entryDx=0;entryDy=0;strokeColor=#000000;" parent="1" source="R7jOZi8u6bVQH4sRsnp8-83" target="R7jOZi8u6bVQH4sRsnp8-85" edge="1">
          <mxGeometry relative="1" as="geometry" />
        </mxCell>
        <mxCell id="R7jOZi8u6bVQH4sRsnp8-83" value="" style="shape=cube;whiteSpace=wrap;html=1;boundedLbl=1;backgroundOutline=1;darkOpacity=0.05;darkOpacity2=0.1;fillColor=#dae8fc;strokeColor=#6c8ebf;" parent="1" vertex="1">
          <mxGeometry x="710" y="800" width="30" height="50" as="geometry" />
        </mxCell>
        <mxCell id="ZAxafMs7CnMFeSQ5WiWw-84" style="edgeStyle=orthogonalEdgeStyle;rounded=0;orthogonalLoop=1;jettySize=auto;html=1;exitX=0;exitY=0.5;exitDx=0;exitDy=0;entryX=1;entryY=0.5;entryDx=0;entryDy=0;strokeColor=#FAD9D5;strokeWidth=2;" edge="1" parent="1" source="R7jOZi8u6bVQH4sRsnp8-85" target="R7jOZi8u6bVQH4sRsnp8-104">
          <mxGeometry relative="1" as="geometry" />
        </mxCell>
        <mxCell id="R7jOZi8u6bVQH4sRsnp8-85" value="AD-ASPP" style="rounded=1;whiteSpace=wrap;html=1;fillColor=#f8cecc;strokeColor=#b85450;" parent="1" vertex="1">
          <mxGeometry x="610" y="800" width="60" height="30" as="geometry" />
        </mxCell>
        <mxCell id="R7jOZi8u6bVQH4sRsnp8-87" value="AD-ASPP" style="rounded=1;whiteSpace=wrap;html=1;fillColor=#f8cecc;strokeColor=#b85450;" parent="1" vertex="1">
          <mxGeometry x="610" y="670" width="60" height="30" as="geometry" />
        </mxCell>
        <mxCell id="R7jOZi8u6bVQH4sRsnp8-89" value="AD-ASPP" style="rounded=1;whiteSpace=wrap;html=1;fillColor=#f8cecc;strokeColor=#b85450;" parent="1" vertex="1">
          <mxGeometry x="610" y="540" width="60" height="30" as="geometry" />
        </mxCell>
        <mxCell id="R7jOZi8u6bVQH4sRsnp8-91" value="AD-ASPP" style="rounded=1;whiteSpace=wrap;html=1;fillColor=#f8cecc;strokeColor=#b85450;" parent="1" vertex="1">
          <mxGeometry x="610" y="410" width="60" height="30" as="geometry" />
        </mxCell>
        <mxCell id="R7jOZi8u6bVQH4sRsnp8-93" value="conv1" style="text;html=1;resizable=0;autosize=1;align=center;verticalAlign=middle;points=[];fillColor=none;strokeColor=none;rounded=0;" parent="1" vertex="1">
          <mxGeometry x="740" y="300" width="50" height="20" as="geometry" />
        </mxCell>
        <mxCell id="R7jOZi8u6bVQH4sRsnp8-94" value="conv2" style="text;html=1;resizable=0;autosize=1;align=center;verticalAlign=middle;points=[];fillColor=none;strokeColor=none;rounded=0;" parent="1" vertex="1">
          <mxGeometry x="740" y="430" width="50" height="20" as="geometry" />
        </mxCell>
        <mxCell id="R7jOZi8u6bVQH4sRsnp8-95" value="conv3" style="text;html=1;resizable=0;autosize=1;align=center;verticalAlign=middle;points=[];fillColor=none;strokeColor=none;rounded=0;" parent="1" vertex="1">
          <mxGeometry x="740" y="565" width="50" height="20" as="geometry" />
        </mxCell>
        <mxCell id="R7jOZi8u6bVQH4sRsnp8-96" value="conv4" style="text;html=1;resizable=0;autosize=1;align=center;verticalAlign=middle;points=[];fillColor=none;strokeColor=none;rounded=0;" parent="1" vertex="1">
          <mxGeometry x="740" y="695" width="50" height="20" as="geometry" />
        </mxCell>
        <mxCell id="R7jOZi8u6bVQH4sRsnp8-97" value="conv5" style="text;html=1;resizable=0;autosize=1;align=center;verticalAlign=middle;points=[];fillColor=none;strokeColor=none;rounded=0;" parent="1" vertex="1">
          <mxGeometry x="740" y="825" width="50" height="20" as="geometry" />
        </mxCell>
        <mxCell id="R7jOZi8u6bVQH4sRsnp8-103" value="FAM" style="rounded=1;whiteSpace=wrap;html=1;fillColor=#d5e8d4;strokeColor=#82b366;" parent="1" vertex="1">
          <mxGeometry x="501.75" y="540" width="60" height="40" as="geometry" />
        </mxCell>
        <mxCell id="R7jOZi8u6bVQH4sRsnp8-104" value="FAM" style="rounded=1;whiteSpace=wrap;html=1;fillColor=#d5e8d4;strokeColor=#82b366;" parent="1" vertex="1">
          <mxGeometry x="500" y="795" width="60" height="40" as="geometry" />
        </mxCell>
        <mxCell id="R7jOZi8u6bVQH4sRsnp8-105" value="FAM" style="rounded=1;whiteSpace=wrap;html=1;fillColor=#d5e8d4;strokeColor=#82b366;" parent="1" vertex="1">
          <mxGeometry x="500" y="665" width="60" height="40" as="geometry" />
        </mxCell>
        <mxCell id="R7jOZi8u6bVQH4sRsnp8-112" value="fusion" style="rounded=0;whiteSpace=wrap;html=1;fillColor=#f8cecc;strokeColor=#b85450;" parent="1" vertex="1">
          <mxGeometry x="398.25" y="675" width="67.5" height="40" as="geometry" />
        </mxCell>
        <mxCell id="ZAxafMs7CnMFeSQ5WiWw-2" value="" style="shape=image;verticalLabelPosition=bottom;labelBackgroundColor=#ffffff;verticalAlign=top;aspect=fixed;imageAspect=0;image=data:image/png,iVBORw0KGgoAAAANSUhEUgAAAQAAAAEACAAAAAB5Gfe6AAAy80lEQVR4nNV9aZMsyZXVOfd6RGa91683qaURajGj2TRCIDAWA8PAWD/xhX/LT+ADhg3DYjbYMIANDING+7S636vMCL+HDx57REZmVlVLwzWpX1VlpIeHh/v1u5x7nP+QemzxTCEeW2rvivOJAAABeKh2L500G7AHTv/QnMSLl19pTCQOlmkEJGvOzWPKTE9s7v8/URhgJhIx+fPLDIAA2U2vlRB04wR4SRGYKJ0Jim7jELzQAOSMX8FT3S4iBeXmhICOryfL6IWWQNP6jQNgiW6/gjmQG1BtJhiJMSqslxkAirhRO3lNZdy2Xl5MBEYDAEaAPtXXvyIlOH9+ogzflzYqBONMlH3FZx+9wAAQ2nz7AsehFsrPkkCAMfk2gkFI5gIWWnrWMIfficDNkw4A2JZ9WPBD3ylRfCklSNte18MIBCaDQcCGK8zDkhKAxybqiMk8WLeYrBuCfIp7DIJstK5D6pqVkTK90ADEZnc47njzj43974pDXf3OX3U34sf/JocorS4fbgMUXct9q2vrqwpb/MnMQi8yA4T2ghVwPvc/5WHumgQNL9dU+zd/58EE8euf/nF4Y0BKPszuxVCU760e5loPCU4aCguAbUYofalKMHI/Mba1BADp2793PESQoeqfxB/Xlunm/kvZKHPT+p1DeY8YbXhqS2XSrhVXvPo4ZZhEyx987xsiEVLMrpFATnVD+ZE3d57TH9vSCVm0kZsvcQCmOqxXPYKWnhdzkCAAPj5804KEbSxxksZBFBfUxKWu+Gio9YOr09uwX74zFKfDfGuj5+HHY2oNpFmsRiByTNeRwHvMBg8tXzUjgFu2wctK+UmiAKc6LJv1z5L5upKFbHk7AlI+Tx7/zg5RP3+7UtMRhnzDABi+RBMNYJo8177qG9/5/S9ko+WIAOyWJdAvGs6NuxcRcTQhCJDYvgEl3GX6LO7CdccJg90yA9qTMgCCSOmFlSbj4dX4Pk3bA0DBrIW99EykgHStUarbzAUgJ8b+5Ysv738si8O//LTNqdvWIBKY2SzlOkQTenHbgCCQIN/VKdG0E+3bau5LUTD59qAIsJXm4WSdMwD/ajoNF2U4ZHBbdIjn5oVfvsIIZAsmboz48urh82j8YRr5MAgRrW6eFiTHu4kebPPoF9CTBWy1zK4oxyeIAYrmnYkJptjdVSLG18hkve8OQoq2ESRhUzVwPl0IKUwIMxIB5uD5CMvjBanKkCLLRQHWz72LlvStQrDcE+iMyghRIaZH4+27SjAPe7jK/hzcCXDNGpacZkQiIRgrmR5+4xCTC/jqK6AM1p7pCvSD/ewJIHWBiKFniiYDUDrDbjcrCbXDWxUM5OXeUctX50eTBwTJ4/t/r6FYc5xg5Onr/9oQFnb6bz8E8/mxvU/pXpRuADgaEu27nz8SQLJ7phdFCCz7kQGxZ5FS0KxxyVTCMKD09fffElPPGAD5CoCY3zz81x9am6pzfnyJ5S9CAsOI4loJgERR6a72BeZTPwCEkHfim8FsVb7wqbm9yxuLLxOQ4Yvqr33nz/+zb33zyWKeY93ZfUOIIoxTC0xoy+IHy7/7luHhMW/+XXhl1dbsLi0zyerKGCKj2IedN7kx3LrFOpUxN6HkGDRzmX/7AyAqINi0q8OuxeE/l+XSx6wU+craE0s8+9yS5bkpaPWw+QYDkQT0GEBj4uvZR1dMYcY5fL7Nv0z82jL3lU9nHKppNdxP4Np/rxjNVS1Gqry5aXCWwpUBoIRVzuvpDz9zSLg/eyiEEEATEyOjSlj5yoC0vc7m11gJR7FE8UVZanVlAPTy3t+tItITLUdMpp/M15GSTVd3fQntUEYgu5cx9BQZ2ybcpOXnmGAysLaQootlB4AIhYCIjVc5k/aTf/R338dklwrUjC2z/frzUwm5i6aZggijKge5Hw8w2DOxE0rt2IKsGrpft9e6LXt48+pHNv5KT7a56dwwA5jq0d4q/3vwOF1bAkA82w2pMTyqVYduIUp2ddmKWWmy64k013oXuEUEVt5b1YFw5uwmPyB2BkBE5EuGzM23NoaVzUttrYjO+Y5rO6hEuY17vCFydj0xKiTrTAmTEzBDoD6640pU2NrrO8wNd+9b4xjvIPd9aNEQevX6i8EhJKBrpsNF4aFyAaiOBtEoGvgmuBsVJsBroYKrN5a8Zm6HrIiV3B+o/RlACN78dvr9EVBF+l0J4bmYCNYPvQEoAnRc3QZfwOIx57ks+Hsbs1y9GpPZV4zuG6SEXhat7A9AXLcw9kXSVG/da1WEDVa4poErlQAp78pZhCu0CrruW4LPT511YYg+Lza0fMtUnj0zFymagEokJnCjojaK69jVNUvwylK9JjQyo/eg5gi95zSLfMp9BvHmiEYr2Cp8sT8Drhjs10Wi0OX6qCxSoEyy/UAkyjTfCJB2HWtzdNNIsY49b4vT13rol5AcFSqjij3awySiPVZPT/QATcvEq2M4l6gfNiIsv4QBIGCgKLgABoi2+ujvfHC66d7LNcgSpciibscHFDHfGLEvewBYAnCCkawciHDL+K3vvdfcMG8luebTVoBkE2V+c5p8ez3/kvABtGOikcpKwrc//cp7zQ3hSJK2VJsSidw+3yro5IodcH8qflMY8CTJYMbWvvWpNdzy7Pv7duF2eaprIQdG+4XIsRUZu6kXG3je3WVEe7YtDIBEwKkwKXRq/OHweUP5xZYFqpVCbF799nvHKmgQBne+OTftzuhtN6lLVu3uDHiJXVsQzOujBeHZD/q1T18dmgduRKh7IdGeAZk1+Fr1w5+9Or1rvV/qkvayMRfEYCxGwHLYLw+AoFN3t+eJqldOy7Qw+9Z3VTmU9u0rEWqNOSzjow/a8396RB4GIN+HDirCyrexV3szwNrArSD4nVYomkVLwNrf/XbdeOttuj6qxc5nWDIKOufemlzDnW7phVuGAY7l4tkLiGyBte6VqB8cxQSXofKcMuKqBlPniAcMTdUemqx+2ut+/U9JlEtCHJDn4/flb4Mj6uUu57qfI5Zx+OrnP8y05+RJJxCEBTb0SwRKFlz86LMKQR/V0I0Jlqga+/W/80l2tc/0S1g8SmomXyZStNzV+moSZlbj4t8Bhc9EQPD994n7Vf+qL3RbKfUveQkEQANKLNN/6xuD50qEhTFfHQNmQ1u/1x7C74THLkV2SLHyIK4lR5+w5QwSCfQEQISrsW/8Tt04AEjnHLDwW4afgPnHH757tk0ayeixnEc7S0D5mYaQhY4fHKEAHbn+je8fzjUAiDq9O5/fPTabiZ618Py1f/Vx/dwdib6lRi8OgMgczwqLEqLTVaC++s2/7rnDRZPW4ZY2n19Y7tZ2+uifvmnsaeGZYj4QTLZh1+3MgJJIefoAWOhQdTHBgL2p1YVuCHSgyO3nIU/n2R+k6t1Hv/3QXBqxfZH6VMTW036JSjCrrhOixATqv/3xowdvC16tgiBhevzuw3/4RVh+whCEuUGwnO8ZgJJMv/tm/bclWnVICNFaz3h4I9PNGnUZ5hSS2t/84A9/9Nn9PaKsooNC5SRKqnps5kucAX6oQmYKZPvuX7F7C50mEiZanN7/6//rv+gJu5JXJiiUIeqwsCguDAABkbwNgLT5fflDQrEEvfrdX08NJgYpAF2Gl61iJUZJor3/N/hvD/d2pehxgdacKbMFpOjSDCCfiY7gIQEwyWT/4MNoihk62Yh2hpae21kAt/eE/Wsfff7UPhUFqneL71+cl9GcnqJweqlfHzpQYuYHhxwgYWobSYrcnE/n0/nSAIh1vQkRZPPJP3t4ljnALjg0ymoGUKQk5HM2e1JiiBA91QwK1MH+yu+6DBKiaYvvUebkZf0j1n5qF++GkOf8RtlfoHBiRwcoTF0oVOJT7iVWKRGgBfj+736cHBEU86nLk153g2SeN6pRI0Hf+ZPPXyBSNw7ucgDYnE1hRDxF30IEoqqr8qK9+dpf49GyCm9JP51umFTZNpNigv/N3/7j//CSW9eyLRFt0ZtPUwASPfUxh2x2QjpAkHJ7x4uj4JubhKgPP3r1RbpnbxounVi1e9ug4EA8cfuz8Cqlfs9Pn3z4F3zHdKwMki6sJ41zokcEo9skFipIAvX46T//9z+UqWTbLglVph0mRSqbinWtBMMCT/KCi9oQklsGhDh86wHZTrU1JzNPFLJZvxBMESy5Y6HD/0ld3EsEUhNamiGEgPTJv/z3f8icQOhCalyk7KEugG5FqgAgf+21wKU5/ILLKQCgri0hGKA8WQAFmxrRnkCprifvtJTaGKput1HTTOgTKp3k63csZqW//7XftzbO5IUMMZVrT9YF5cwIgJGqxmxZQPiCA0DIqmMlSKToH32laozqyS7EoIEkFIVEIAAZgHACIuh1X6JHwWuewldvmADDv/2N+vf/lC0uBImIkLOA66XyzKULWgZEXnQAUB29Q8Vk/Nonbcvy1P3HQCumPicmmLKzU04CJaQhhGoB5PP2DLfAQ/ztX/uDn19K28jRejX0a+SxWF/+gkFRqTpSUcJo1fGoMDPZsVYP+FaobSe4CHEBGLaBaUUhWMXtoK0A0f7qP/pqOLcDFqGBK6RMOXTDulJuLzkA6VVFsjP5v/lw5gJjxOJeDaqNJVCDKIa65iRblL23FwaTPv5nv94aNy0GETln0gCpy3ES7s6lvKRNMaQuKL73UHYFOm9kGduQ5DsVg1Tz5sMfHKnzJqCbyuQsux9fZCCWe+faFOZTfCCR8EplCgf8g0/VugQWaOhwUwHZKYEWJefdR96W9xTAdocuhVLVfq/6X6nJGZsoSnluYYkl+UHi1Gysl/UM4BNtQCbKkBVM+PqHUTSw1cs8qJoWEipTJWUEC+pxczPbQ8YKVLz6TX3efPgXn4ViBX7I5xBz8UpyJmg53zIAtKehtwRPpgg3+TdfDX6/c95cCYtRDSwhHi0I2XG7DuCKgmLofPy9L36WP8n/44dpPYhxkqmNmmxBktp0bTcG4CYU5+JLgowGCBLqo7VdLJpLY45AAQqWWkZI3WUbrcpe493lm4oUqo8/bE9v/7wOwuZGXoFn6YTEMDNj3nysl1KCZm5AGLJ/+P6YgnbbeLbQOC12fY58QG727uqhzEqP3/n2j/7kLZdV9xiQYRIv5ZafOQDdvJLa2skQ+eobH0efiDXBc/hs7okAw5g7m3TPozFVH/ws7wACAoDEhwM+/M6/+5MEmc2yjQqaSBOCkBWVOh+lF5oBZRenHz/4yqu+lNEUpgwLWEHMTlYpMZIl7e31sFePu3MAIJXanMxC8ioFZgmX6AwTBLr/vfQAFIejOiCk6iFVxw9SLvmP/HgKa91zqD2XTU+o6j4mfFPmUTjm5ppWtiq9Vf6kQXYwESOzXXGCoiyOtosxXR2Ae1Rg9leJhQfr9SuzB755U6Eqr9oApFauts0qhUNStysIljMoYWenK5GCa1UiEoA68re/dfrp2TjUEfQtjM+Tqw2j8RkzIOBudTJQZPPw3U8bA3wsbWTthlMrVYEE0REcYxJhzenYXt9y8y2QYDed8zG9fbeVbh6MMPrGp+sBiFvTARTqOkXIFfzgb73PAwDEQC8qc0BiyQ6GXOHSQIYjNu2G3l7d5ZauBFBLelO1j4+6ZMhpM4S0CormfKPpLk80ZCLlpE+/l3pYJZedNmdRz3APjnRIzOfDyyBxS3/gbz5omp+cIczjj33dWRdv29EBIgsO8VqvKAB2SAzBgo/f/61tsAsDZS+qrfAAjLQgAJA79ylumAlXheZq2urrCvHHn5VgWNGCnZFscAO0MJmHARBIEaeWN5jCEiyrtz7t8KY6bfQImU1QlOCdXTszWCN3iMkTnZm33HhHDKC/KtPv8Obnj4YAIoDHd+VFWNRu1ux7g3FbFYZEHI4eBJHh//jhvPWt9h0Cm7iUIsS7uuQ68721DxsS6InfiIfq2BJUPp9bfPY/S9iFueJ7VbvwCGYDwJsqJQlQsOOxZQaR7JuvN69TK1zk/5IhyoILiGqrZ9REDt0a/m1aSwSQDimffsJDiRhUyDOaSwBP2QYpkFbVbMwPhsP33ku27Wdch8DRRA9Kmzjmp4tZgAHJc/vwutO7Y7x1KvcNAAUqrK4TCeT2u5+2qVLGBTYxjBpv6REqSCegDK99WP0lVNb18RmDktsk0VQC0COLM2nArGLtzgFAgJ5qF7Kq+r2vHdwy7UJhAUUGLGMDGkR6qqwxmMwAKDqfvXtNVDwnYElnl9yZ4BwEPp5r2cwDvW8AMswPZs5T9er86e/54XQdwSxYmhdIEcDBTSbYQyVYponw4lJ3Ejnrwsq6QTxtlpPqnN+lh9nMumMABHhV0y2a45tv/MaBKU60dciz2PrlJ5pg4HGm4Pr3keGQZxIhINUc2EXLI7TMGjioN2KGO7IV1SEAmfJJ1WQIbh8A5fq1g1TEV7/3OlWKoC0LQGe/eDfWebHz9CMUZqQb4XCyrjTLyMuqQ3vKka1dPoy0YXDe9hC0LNrdA0AEzdwIwdvj9796RgH9wMrT9SF9oiRhi4HUvaeLyeyAmXe8Xli+VJGgtUqp1TKcFwColnHv5lkmmWJcXLcNgEg7dACzbGbnLn3eVWML5tZpr40s9CVESDhb5gQAxCp0RiBoJLKZMSaro+Opyw1WeZ6rEiAiJnbXbQNgDMCZAYBZ1TTqQqPROuCOFiUtfa3Ipn1FWe2+YwDLnUyJ0eFVytoprJykv462gQ3FNMubdm2sxz7nyVMPP5KI8A3l4hl1cmWPwqUHMpDq6RbFGZnTciaXjBxtNQhBL2yOW2hEkTCo4O3jlFN0nFZ9ukdwb0XlBSmbSklIrzu5QlXN38bCFNYGVVNR5NbHd/uU41RfLb8y7xGsMmzhrboteg8zaVkArKpSbrrqxwFxLEtmCmtm22VqHmXInclO/6M/3D0CaByAEkjwZUGnWJ42+TDydyw8AaBXTnENuiq6QbTc8lAvUClltnkVAAJGWA2ERmYfAkqF4nFQH+XsijwoHSHSjz97vQdPms+ADXbUftO2kXmzC3vfJhTpdgFy1vGbsjZQW1juMm/YDYcM8Ind2YebZtzUp8Y4scDDU+yleu53hixE2o0oItGNfgnIAkJIbvKUL2YkY+Sm7TbXsTHDatqoaSdBJ6U2M6odQrB5RGjnxU533Agx9e/vsgiE1X7xbC0Ve80TFJu8QgLs0OQZbS05WdIC5nUnoqZKLuzdH/yAu7RdT4gKm1fMvMDuMRHRUlfzvD2ulpIJ2I8EpXgGnxmZ/29zaPMOc92Fx1jMR3IEejLaz2TRk3Pt3B3pkHogxtYFnpK7b8WqJ6KY7Eulbvx2J1FEjTaqnW9szgDGInQYERMV1f5J9dEtQFptGLiL7l1/udOSdwpcVT/vdwGBNQvFVDYHQE07t7EFG0BXUtUogngSmPhZIoUxrnMx3iNriAyAvKQLJmTq2KtEAyxnt2fFbFA8qOuPMlU2dObY4KzfucW13WoNkKCaZullCUNYiUFjK5xKSchzZOvYh11Rm4Ubiy1vlY0ZwFiZJOrUWEfsmwlmoKVVWvsiNwkD9AvImO0vCGTkhbP1fNnIDW7C7qbaqkxcto15SNWTWSZ4KZp86Xo8KQiyL+slgA2zjRvUvaSYs8yfUV74l0DWpzm0j+tqph7FFBjhrQXYye6YwHtFF4BRK2F3ztbFi3vW3vJLcS3veCMbBRPrg46gCX8FS8rnL43k8zhjReSsbfbhC7K54De/LhaHQFqAVp5IdQuixXXCQpXXf/mRmnOMQTgBd5JgbpXMXHBdun9DeyxY90iTU3X1IrtwlmXpE4lVZBp3qcr7ky+2XdC1JdvYzEFye20XIPR42llwhmgyJzGc+4PlG89yJVF5kZVrKWQ0YvBiAZYhn/LybMFZC2ofT3s8LyLOU/p7meS4ixlmo3DyxVArRNsmXCZNA9E08OrySRrt+U5LQYrdc0/WsqobPMd9FeNjImwpoqSw+pJWBVBO3L3o26i9wh20jE8KWAIgrslqttxNVDdHZs4+UocE3OlSclymlnxK+ktmiFswmH0H7r3B+o5DL7fWzrUduaCmLgzBUzhDGPdZpmt9cauJBpQnbxXlNNASn13HkrAf97BFkmH86n4sjISwYJvfIgy8Is+fAdFP4dlpAL8UkeGeiuRN2eAP2C7VA/o5vvz41A/7MkhdvhLUE5bySrQ00LSKdpTaoDtfwnZMcKMRxeD4rxbmmJdYfSJF9RwyonkfZqCzxdsIMpAv0lJckhVUdjO+UVR9icfHRZrNjWPDhWi3TsaZXXKzLBD28xVnjNMTyPBXM+CY2w3UK49mVgLSnpcd6a8hnEs7ihH0nUL3bQQzxiDU2BKgPGXHX6Y8n7bMVgNgxrR+w+FeHTqXWJeQvaf85R5lvi/Sk4zYVY+zpQLgm/6RTK7UQV28cHJZLLecnOmxmJgicuMFmlLqVZavLTYo3wFQYbODsZYihuTdMzNK+ud+3qP1LlCnNazPAMHLmdmiAuRG36gWYSvG2Ny66B0Ebo0RcDa+ybIt5iuRBqLjZ7N8XiGpbpSNmCDXJxwHAOtOCQBhn713XF8kIGf4qhyZFEKgH7A2iyVDe44NsDRx/QgxtWWDOTcFuz4p0e1+vjofJie6kxTsUG0obcq6JF0B9f34p+DGZkAAOceG90NAuZGtEoE0ie27jfw1qWt+CdEWtETknqGw23GNxR+wdM03TtPiNQPqaivzEIopwpQ4p/PymtKKqUV9Qa+3F8FSF540rgX3+kOhZ621DikSA7J8umYapbr/HkCGBo20NN9UjkboP263m6W6w+w2u3tGVW9YmoIhVtQG4taRIJNboaNfNrVt36RM7WOkYJM9h/v//Z+nK/Z5GtjZWHyZ/rFXsBJFHiMXT4Ixr6zZQaJ9+v4p5XZc+siPYcIP/vs7zzC27TX/ZJgBKDbG5LFzO/7MBZJxWXiy/HXrVtyCIHXfLnXUC1IcLeMdy68VbyByrywFs8jHn//p25+d/OTM4gL414HRJ39KU36+qSUrO0/OGfPinPfPmX76+ZtzCowckWbMfSMXqPOFC+f2EM4sH9HynUS+QCwwfJESve2oMsVIIfhP/+BzzxXcNoPpXDhtsx14Gt5aOTCKLK+sASDTj95LzpHFxnL7DHR/OM9IdeI92VJI5QDNyTGwQaS3f/aFGzI7MovJKw1LlWi6XC8wG4zeFldp2SNbqMuS+vmnX6laJkTZRqTjuEXs2G6mhhXy0vZjpkULVdMZIAWW1QhTV4BsmggyN31JcJi1+fP/+AuML2Y6A+he1QI5Ow56/6ClvoVQgG+btnc2mdMfVS0Pnjq/oP3G7zwwuIvJBEIwrza3NgltIN2VaVeAiLbppi7h7f/+L/HWKm0zj9QJkYxz3bJ3wgShtmkBICJCxQ8u9pU1+Qw88nVdDgvQD/788Fvfkqi9EhISyu12IZkBeXHwwnx1Tow8gIrclhxV9EZf2I/+2w8aO8aWrhWsxGgVHBfPxQEQGWCcHk8aokCdf9r9KhesAwqZIYI/efX147mOaxFZtckXNsbIMzh1wjg5MF4gkCOzo2sg2vYs5hziQJHP0x/9+FKZYgJcyaSgVQRI65rejgihzTnibXMOuwRLKOFutTI3hYcOP/2D77/XwLYuHr9FtO53I/8MWWozaAqgaaXcZpV2gggr1vrJcmyTkR48IEOAZhWnfBqpaH5G4Tsp6G3lv3hMbcGr73RVKDingucn3/30dcoegrIXBpNutk80F6AQZCWet1SY84A0e3JPEWraSJTAOJ0ROaQOEW69CuCYhlvutRGeyQgkhvU7XDcDis/QQXDOTdDRNjk7vbgWVzc3dseeBPRf82/ksPyFIFgCeg5fuhqUbdsjGk/b0et51rE77ZEGUTkE64ommvMGE0bxC5SKVzyLZxjiUCgeXWGWxio6AEgGFP7r3DTnJkjJiw5AV3a4cbPFrYEgjLSf//iIQhFDurm3FUFE257PgJSUvTaPiqL5KrBkNuMdjuLotMXYJTvGwnzO1OrgSICgpT7frmY8jKvwMhZqiVz8z4nFkzIAQfl8PsPMRESv7IvCvxpnEEALQfLPf/41hEGl8pHNZ04QEYIlyA6OeGsPyR05Z/fFYzCaES/Qu7H5hME/JQBzwVbHJAAIUxtd5p7SDM/ugsAQLblbdJDHMgA/Lg23YBnyoE9Da3tw0El8UuZ2bEwNyxZcxrt9ax2hmVhX1vlujbtzs4Igzu7zIAiFssA6W0dFhWz2hmOWVUjWo080RWOTB5+XVBYdoM5TUWG3Y3dvP+ycNKVyS4Y7xGSMsZgFFNR3o+NHVRgZMJyV3CFTHwfqygChjlwSBRNjlp2/+EwA3VCoaYh43DgyTShvfTqYwwf9JA4LCmznKP+yDfZKY7kofS/ISEEIlAT/IpE3zo3uxF3vlnyEMb/NryjonOSBQt5WiFzzKSeHQEM+tTA8/rTzyALIGYIjfFsvG3Q9Lrg+Pm/XEtTWEhjGL0pAglAL6+IIs/kiEefPytVHd4E0j6DePeq1AWYGFzoHg4YcUi4seyoHynXJ1mAVv3gnQX7AYQPHGD0t49z3LdNpduEy+HbNF9gI444flH8E+haQi4K1KggWhZnYtiHCk+usg2eLlgIcQsCTgaacu4wfJ8zepAI5U0BsowDNmibetkL2bvVhqFPrn8BIEHlhKT0tElMWmIeAyo1UlCDpTIMJx/ji3HeQRM6QqLrKbjiBxZL2o4khizBaaLC3RTiiBJ9JGWQX96QmkBtvXz9WXckgoejZA0cnIjasmicNQFkFZgilY1mzkojKbXIoAeGv+Fa9ouv4uhmggYzOrilq1sQ42ezwBAo4fTHitsuKALYijm1DJPMPUjhylAPv4y0WJxMGaUZnvr94ei7qttuAu8GLIeAkHw7HSRyXaHBM/c/tPlMnQ6ZzNSsFUPv4i9sO5vCA1KRPPjq3p7dCgAEzbwPzjDWFJYbsXgoNUZYsucoxBE5LREqCySujTcg0slsk71Fw6qouic4V7SYoSYuOzLvN9LqP29Fyg67SPchACdlusmkrKDIiQcemARTZeHRFAb+XO5kgORic7m03Vo/3AUiBnjqAvAjQqwpwC5JWyQ4+yWYJBlap22AFdKfoStFWQ/hdLWldCa0EDeHoOBl6q4WR7UAKjpBv4Uv7+ZXea9sUcgNBV/fCO48nDIV8dLIELs7LqbZ3K6YbQauIACQawaqMYfaU6MqOPH9B3ZCwLBQjK8kx6UAoTm09MmjHYxdTocj21GGAzPIZB4oQYydjqgi3xDTqofYc/dgIsCqCnJ0jmbY5gJYNF05kmcqmbwGvHUbBXbCUKkYLO7omdfUhb732gMxpgBV7qHSms09pCFUTEyyGf8n82OEkFcpdldbFMiMBJJH1Kk/2/8Nr/UUuITJz+JE0tI95sgSu+jpAmV+ldpusrASc1dsA5skie6LS+9US/uuHVDxxdS3cXGtGDkAMWdukG8sLYD613mh6l8uSZZKVoz+mfFHXjttDGVpFORvNk5W6MQk00NxgNTO8rgw6z707QK1a9Xj3KByzpIzsPUFhng/geOcBA3fTgR+FqE2YZ+aU+T76Y+ozkQ2yV5OXtD8ABgVhMA+yp0FQlmTJLBGGEiutDkko7CSTMSAAyVDgBJZLqF0A86PpML1s7PH4k3q3X3ELGo5OecetOzEX1ce2zQyM0JzKYGsAxkcI0iyElHo1Da+MDHWbWVCsHhKsgxCsmqLBiqFfdtBiISsCrK6FWaJpStWvtXEd/yxUQH1sc85Nl+WbK8sAkaqMPFuGq8SIIUo9D82seLzlhAaBpWySHUWaFUZQ0qybZHNgOCVYVfeWPUB1Z2gPRyush3zWQEsv05mMG9AvQrA+KqTI55yjCymBo08vHpJh6rnOBsBQopBuAlPhmLaqmkaaY3SQFDwkiIo4VtiIRLIc2NNF6S6/Q3LrGL6SwWEGIMVuhfn0ATJAWnWMNnITneXMntpHFBw+6WliF44IQkajgWaVmw3+3nT5lZ4WnaKqNoCK9uBAF1RYPOawb01nnSDMz3Te0PACx9inV3krCrY3FGZA22iM7ZX+l3rumO4CAi1kiTSWqL7RK4yMGbNu0Ywd2YGqqrB1aFj762/ckuy8kMka2yMOp7swwSWsJeMSZSRZqmbclQmEJbPBfhGqirSRa2kWFBCr1CULGMxF85Uo5eajafPtLoYlthAyU4Sx5NJkOG6Qcn1MqBPUqVPVNp0T6YAuLSCgOx8mKW9i5iXSvV8S/X57sYhMACZWKSilzs/xHBxB8pvft0BjncUmRkJvYllaJ3+WClIAYWgsDfx83bgZVU5Dng3AaLyCFhYA6vFklrFV0dYVQLpcZWVw5al/PJkoxmVsZvlMymMX5J6GE2vXpw8dEpruRMexf4Eqnc9lKhGWCrG60pzxPx0n7bDsUcFU1eskozo9N5mbRedtQz1LXm0SVR4izGRJHO2KEO3EogWZOsNqazt0sIKgeVWrkHzAC/YZA1JTJbC0AyTAzS9xZEqcr0ECli7x9Gi2YKejFl5dQy9xXk+n8f+bfTODBIs8GwD2c2IyjzH3BV6tu22YkhNN+19c5D7ORIE02k7d2+KRyvaRzby6UJgxXlsKJjcyYFtXo0xNQZe3lE5Uv56Gzze8wdLaZjMEZMkJQwRNCHnydCM6aMABWPJrNCCSYkz93yYEZUmWd74l5neV3RgRWs9Rk6VkCASYBDOj0XeKe7c7mhLiCgAMAFAx3wuBprdXbA++O314vCkitPGWDFZ2ZMkPRLeWJvebgAIWrY0X4Orr775iyc4rTP58uzPBppDykgTeKf4lYsZMtKUD9iUoWWJHIbl89xI0owULWDUdJEpw5+Cj7ogYcBcms8AWpHyCIi8oLIUrC2deqXp5CWyNYv+C67QR2VHHmWcYMeEMpekkU8fDc4tvQ8C8nH/c/2XWEgAi4rzcFO7jN9rLDW7+jSGrlDdeoKfCPcg5+F9DeBXo3OYLpwQupOSUbZqgnuyrXTUm3ZdB0t3K0RUs5ylkaumw+QatKnwfsfeAuhdRqslW0L31lxIC2wwSG5cNn5GStMU92r/oC1D5vrV5/Isgyoa3iKXAemOFvT/ddWUeccMiDhFKsUGCMhXvwDcRStuHrV0XvciLkFlI2iTuAbuzsaIHftyysEVW6ZrxYNWDk5BXh4bTAegm2OKNr7FsVytZ9jo4/Y1q/YDwTWJGpc4bYdzDWiPRZLs9tONrg3j+zr8gMFY4yeC+2CIg6jSlqCDBdC8D2PTe89/qHMnC1tEEAYKnrl+RIiJu0ZwsyrHdzcPKkUFE9RqazACKdVouxYB7bkf6upJxe+LjU/5q9qhkFb023+wpACiTiWpz3FwYd+Wyuuo4NqXwuSW4JD8VJSazCSknC0b7abIMfkq4YDhOvlMGIqXs7Ym3uF17HLJUTlUPUKSMY25QzL5V7iZQbd9ffyH1d69IoqUb+Yv2LhLqhYYcfy0x+42vD9Gx/SDGkzXjWojlMJs7onrYYi27YPhtdydYLx5iqgOw2FP7psa0wtg6Z5uyCmT5mWMgDWVyS3xiCYVsAeQErt1fabEQJiHOySmwjKdTaBT85miY3squtCcECvhGrmDG7H0HTXHgabVInWvqDsWcbltDKS1HB7a0dPcAqESCQBbK79ILmtGu6bM9ISR7/eCVRBl/8XN5RAkf9iUbAi2dVgGfOgpt7Fy95iGdSgBUWNVjQiXTyJl63wD0xzkSRufk5OwSJ3veJJC/qSiTmVH2LqMp3hA1uKbaKusNrBDt7FI8fRxPGuMvgiUqe/f7qmxu/GVY3+OHbiY3agQwjt3HEzhsZsKgLAAa4vj685+hUjQt+jokglBmZrUoGN4ILcTU52DngYzuiCXmHnCRlm0NjxRdwn/ykmnF5R32wkU24hmPrzLJu6GVRBcINwaOCjhCAkHnmVWzIlOZy+pPsyiKwFI6EibOIkLCNE2jefRKIDNLEdELbnmXxB7YNKw9Ht57AFLtCgHWnPRn/6e5hY94V2ThNQAuLEGsyqI5WwIGxNMsYaIHRe/0qsMPCobWXpVMTvWq7hazQ2QK++rnX1hurEQdOMQIBjjJta6URKjSAcR1JThvzm65waqFbsWE1O6ZskMUVpKbO1TDk9v4WIJC8d53w37yp82U2wkA0OVEynAN+Y/1VEkzB/e+XeCWh6c4+hTqFlF5RWnfkaIV5DAtIyWjcEjifLUztUzAJx89/vDzbLJypFaXpzn3lOgSPRmtw7Jh2gK688+6Hr4A783sBoIpVxPUs00LWfbTYQVFZ4j0QCeEAGZE6hR4OELAGR8/nD97fNd0h5yjbHXRwTSTwxNiE3hBoX7I7HOzTxmAQQt2+J3pR6KJY65Iw38AXMjqrdv3GogSepht093uRqFK5OvXWT/5s2GOS6poJUKaksbTc+eLoKusGDzczjwqEdjbVGtXdmgAJDvMujiAim9qafhS3zeJnqv3uoVSV4uA72TkLVct3aoxK0LSexVTzqkbluG0BQnMcvQogWEGxC30hULRLQDNuBHKWvtxNwiLLxGlsn+COL/YEqFSrLMwRGb9uE1Sr3iZNpAXSykmp7GUNatg5p+1JbPkcSRaSqU5o/q6mIsh/gJP0TIEPTX4bpR+Aqs67l843KCsgQLh2bBC75WuNkv048ElWb+9iTMvdtWVrQV+VYKlZmCSHS4/XWZ2vXz/Z5mDvfsSIA1CUv2mCtAPR4YEsbKk2LtJ+GpTCV1ZgwV4quxDGCWVndFWDCaX+939MA2I3BytDEFw9h5GdwJNYlCHA2u6I5kqAEgWO9qUhEJopnVQIowws8truYw7Uy0yYYgKi8XuuC5pDVAC2GGZrw1DgZgJ/ZEE0UVJA6Dq1xUTWJl3ULK9PZOmDKPUTIaI5ciewTDYEgGwjOqofstIr1H8HPbv9FLUXwC8rtaBSUKl4re4qSPtA2ffptdmLKWbpY1CZyNAAUsWFjJVHQ6PuNCRMEYbBaeNCW2XwTryhitTOYNQWOdTp0nYoOsq+7MTl88JYCvyJcArAMowUNEMXdc0tZ9SD5ObBhEAgAURbCQGGOr8uqmYR9OEASBl1cTOHMzeff1kAjiswg1W2ag2geydvX3htQAFa023/vgdcjybRoLb6ujQSdtmEcny9cA30eYsZ+5m7fVzfzeayFn9Eb/zAbBMgyXbcvk3QiAbTWsM0U7QrV3NzcWlGUjGiBWP6JYoN102WaDXkm7AKM1iZooggtXaHVbAD3jmQeDc4re48hVjSusjObcl2kn+KinvHKU3ik28QqK8YM4HgJAoJhM3VcDtz7R5oXY+lIJyMwURkeapt9HXKU+hPCoW5a4Qa8hTzPuhni2l7DxQR4tSMRz5fA7Tmld4r6cvIOrUCCd/EQl4SlnJjJsLpS9a1GlOuB9MIQ/R1mlDdjQsIoLJi2qkKQPnzOAf/Y+wvCIA/bJlymDT9VLp6KgPNKU6Lcqu+qkTopmQ2zZPQHAk4Ed5cDM/ZoXgVYU6qsC2FUEit8y0AKg0uRExOtE7j/CU5550yiCOp/ZQYCLNnVbV3Xlu5YOSfkkEZLkNtMSpnR+5ElBr6CgKlgQGA2VYt6K7MvZuhVsJMi4OXeUVeM1Mmdp91GfdLRaHH0owZiSXHWcUW0GyYncIrnhmPgfzYoefevC2tB33nqQEM4CpDiiAtOxb9fkMR8Aw+/Ba3du2aB4kMqocCkLjbJ8kZHUqcBwRBRC6zpjOfru9P5tBUUqmFolrBIRYu2CcsbvvbezX7jz7nhl9PrnQhUj6M5w4uN/ThzYP3gen3pClEszc5LkqXosQ0w/HHy9nxa4tEnUR3M3Xd9GkFSFYNOfYKrhbXbsn4wCwEDiKWNM8s1dNCwth9MQm1sPshsvZtOyuDCS9Z8eYS0Txdg0hTHkgVSjlTFW+YgVeRXRtHbi4Adu6IioFBAUkO1dTV1wzg/zokPLUpKuKq9K/idWBdvTctjbwxezJtcDNagDixI2jka5Z2yJYm/vqPbanff9GTJVDQjy2PoSJLBWV1vaeahSN0zclRVgpWLnyrqJQJV/uw9obbOK4JHvntqExvU+uDgbGSidZvQ8Ml7kFaMrtWHpc0FDUO3SLigHXFKD8LgouOd3gDEbew7VtWIJrp0RQu3/CGlFIO1cn0V47mE3o2E1MZ6/V7WZRqFJ6rSIiKTBGo6g2CdDalN+6RdPcevp8uZ5bwah2/2A8GymTV7vz1Q4CnZq1to+GZbNc2jNSmWjadqRrntDAXG+fTOzA0Rtnh9ycGuNTYu5PFkW2QkkACZEjMnYBkHttsasLVrP1ZidY4TUsetpMDiTBnwtN4CqZMetrB4iKJlglFwDlNsfSBOxJBW/qy7A9+xYl/nC+gHXUoJdaOYtnOzwrVDL2Z+OvRCG/7H5p2Z2dyVXZFKC+Lui+3mxuBulduaEO9Y7NICoM+bk4sNILVFtdsaD15UEyKMbjz2WLQC+9KpQKl2fAzRO15/pSLPX3ot/sMirPD5SkihtBN05CiFQpXRXQ7yvz2zJZu+e4MiYwwSuGUBep/hLU22aTDCbfuN9qnu+CLmXm2CIV67+sU1N0xNUHS91SEgZupwmv6KphXJhcvaXUAxlleU6ON2lj85xmrifgXhhaEHcShxmp4wnRuysj0C8BZxdUM25N0KvCaEI+K8CpNnXqZaPyXo22uwncGGIessOhqq5z1/CNlC1TEZBDc9Dd9uyLyzy1vxJJ5fQj88py4SYltmJCAABpO2Y7LOGJa3Ihx3Ex5ferknLICj35wQhYe7rvoNsLMmU5nslTz+n+0iQdUeJvKPB8r+yC80QEdw5JBqYldrqU3daC9Hq7Idx9hDggmgq510oByAroYuuuPbVIb4KgVtts3jwYxn1z8QbxdW3ehkjXzxlbfQeMiOBqlQo8h4qLteEMldTByCoiS3lGW9A3SPkOV4S4zGxOSDgmaSAlv4qsEmD3n1lDQG3Acl696I5OeROomfqcwqRHZjE5VoulhBWMVF0OP7AmJoyqFPEOXaQZdd0n7nOBSFzd856gJ4SyqVc6tX0nuk/637cskA18AJMjmqxC+g3v/aXw6mLHlCrXQsGVNaWguskQRk9fWtYRGGynOTalbdeMMKOk8j1xHHVRSJ6bXIxwSx1ANS4yZgHoC3wWUuCEjVUlxiX43QHXe6SYvwXiIhnJwsw7m/qc1aRtRIXLwVqeuhdqyNZlknbim4V4cVMsysmRtCfWGjxNCCDallrCeoQp/nArLF6gAujqjNgda7m/LtXaJfOzD+YpPwHO8gwhBLU5YpnBGuAxwOaRm32WbYi6de9tP9l4AvywnaYZthjeb2M/U0yPMw5RBoyYVo++ED4gSETeOPvhVy5DlGWQ7NdIVZ8glAAvZxn9JZOZ3gnrkirDX/4fN2P2h61U4i0AAAAASUVORK5CYII=;" vertex="1" parent="1">
          <mxGeometry x="-170" y="160" width="86" height="86" as="geometry" />
        </mxCell>
        <mxCell id="ZAxafMs7CnMFeSQ5WiWw-3" value="" style="shape=image;verticalLabelPosition=bottom;labelBackgroundColor=#ffffff;verticalAlign=top;aspect=fixed;imageAspect=0;image=data:image/jpeg,/9j/4AAQSkZJRgABAQAAAQABAAD/2wBDAAgGBgcGBQgHBwcJCQgKDBQNDAsLDBkSEw8UHRofHh0aHBwgJC4nICIsIxwcKDcpLDAxNDQ0Hyc5PTgyPC4zNDL/2wBDAQkJCQwLDBgNDRgyIRwhMjIyMjIyMjIyMjIyMjIyMjIyMjIyMjIyMjIyMjIyMjIyMjIyMjIyMjIyMjIyMjIyMjL/wAARCAEAAQADASIAAhEBAxEB/8QAHwAAAQUBAQEBAQEAAAAAAAAAAAECAwQFBgcICQoL/8QAtRAAAgEDAwIEAwUFBAQAAAF9AQIDAAQRBRIhMUEGE1FhByJxFDKBkaEII0KxwRVS0fAkM2JyggkKFhcYGRolJicoKSo0NTY3ODk6Q0RFRkdISUpTVFVWV1hZWmNkZWZnaGlqc3R1dnd4eXqDhIWGh4iJipKTlJWWl5iZmqKjpKWmp6ipqrKztLW2t7i5usLDxMXGx8jJytLT1NXW19jZ2uHi4+Tl5ufo6erx8vP09fb3+Pn6/8QAHwEAAwEBAQEBAQEBAQAAAAAAAAECAwQFBgcICQoL/8QAtREAAgECBAQDBAcFBAQAAQJ3AAECAxEEBSExBhJBUQdhcRMiMoEIFEKRobHBCSMzUvAVYnLRChYkNOEl8RcYGRomJygpKjU2Nzg5OkNERUZHSElKU1RVVldYWVpjZGVmZ2hpanN0dXZ3eHl6goOEhYaHiImKkpOUlZaXmJmaoqOkpaanqKmqsrO0tba3uLm6wsPExcbHyMnK0tPU1dbX2Nna4uPk5ebn6Onq8vP09fb3+Pn6/9oADAMBAAIRAxEAPwDzeRA0DcsBtByPw/8A11lXq7NQkDcDzct6cjP9a2IT8mGGQcD8wP8AA1maumy+CrjcUQkHvgYP8q5qbuddeHKbemW2+yScOzESlTGOwB6n3Oa3tViH2KxUZEZnHmAZwen41z2jXEbrLawkrJI4ZVJxjH+T9c116w+dEq+WzujBgw5H09c9PY1nPcI2sU9TjLKwjLBs4GGI/GsTU4BIYDhiDuIG484XI/Wtq5BZUKmTh8OR2GD6++KybqF5Lly8kpQMQi4OcY5/D6URCSItI09LggyGRxlTjccDPHbrWlqka26QiJ9uCM4ckH3/AM+9VbGO4VIVt3BMjggjjK9eP9kirGsJCBJuldnMuFUjA259P5UN6gkdGsUmnzlrV3iOMYV+CM9x/npW3pt814jJI2ZU5OONy+tZs5jZTtHHGB+FJp0oj1SHp8zeXgejf/Xqbspo3ZM5HzHH1qFw394/nViUhFBqFsHGfrTFYpS7tvDN+dZd6H8okuc5GefetmRQV7VnXi5hf6ZpDsZ8e8/xt+dS/vOzN+dLEvrVgR8YFFwsQfPj7zZ+tN+fP3zj61X1LWLDSJ4YruV1eUbvlQttXONx9sg9Mng1pGIqSvHBxkGnqhaFQB92d7dOOelHzj+NvzqcIQoPfv7U0jnpRcTRDiT++3503EmB87fnVjZz0pfLGad2BAA/PzMPxo+foWb86shaClANFKQuB99vzrb+H6+Z4vG/5gLSY4bnulZMqfhW58Ol/wCKy/7cpT/48lXDciWx6qtvDux5Mf8A3wKkFtD/AM8Iv++BTsDdUq88V0o52MFrAf8AlhF/3wKGtoFH/HvF/wB8CpxQ3I6UwON1sCPVI1RFHOMBeKo211BBqc8t2Y44I7ViTIwCnJCr14zn6dqt69n+2oMDjeRx1/OqWlWq3Wo38M0e6JbdCFYZDEOCD+YrkbfPY3ekTwW3b5JCVyNuSM+3H86q3rOt5Irn5Q24KXPA6jjPvVm0J5HqB/TP6ZrQnWXzN6PH8yJw2eeAO3uKiErHbWjzM5sSIiqFGNv3cOeP1rW03Qb3ULYSwX4tg2dq+c5P6dKr3Upa6lgdQrxhSe4bPQjNdD4U3/ZwipERvPUkZPv+taOTtc5uVXLUEb2enraXc6TTRMVZ16HPI/DBqldTiKXeV37Vb5QRk8e9ac8Uq6/JvgAWSDcAHz0A7/maz9Q3RnPkEcHkN9f8AKzT1uDQmgSiMwrKE/dqRlmwP89qtXFvE2piRpFkRAHVI8sc5zg+lUprqNdUR9kke6JGKuvU9K1lZZLSdldX24UFR27fyo6hc1NEhm1gXQ80Q+XtLEjOclsEAfTmtq10eGxlWYzSSyIeCwAArI8Gy4vL6Hs8Mb/98uR/7NXTvkggcc/pSsh3ZXn3kY9+KjEZyBj3qwRt6dabxnk/WgLlZ1xx0qnOp2kdyCKvvg1Wdc5/nQMy4RkAY/Or0MRd1UdWIHNU2Jhs550jMjRRPKsYON+0E46H09K5uP4lWiQwmGxkN2y8hpAERsdj3GfXHSnGEpbClNR3Of1vUG1XxFczAAQoxjh+YkqkeVz+OC2OOteh6TI02h207FS6psbae6Erj2PAyO1eQWl0sE6o27eM7hgYYkEZyT7k12vhXxTBbTyadcRyGF5QySAhmRj97K5yw78frW843VkYRkk7s7MpjjqRn/69M2dcim6fqVvq0Ms1sG8tJDFuJBDEc8YPTGOvXP1qyy81jZrc3VmrkO3jgfhSbeemal280YosBHtwOetNJPp9KmA4xxRs4z36U7CuVJgMHHFbXw8X/ismPpYy/wDoaVlSp8pGK2Ph6u3xkf8Aryl/9CSrgtTOex6sBzUgHNNx3FSr06V0GAqih+lKOtI/TNMDjNWBfWocgkHcDUGh25e8v87gjW6KWU7ehPHH07e/rV+/gmmu3WF40wVyWBJ4549KrWBayN5uDCXy1HyRl15JPHTrxx+OK5GrTubPWJ88WiFZVPZSD19qtTMNuVJ+VdvToRg8fTcar2bZYdeVBB9wBzVgvvRMqPlZi3PXkEfotZW3O3mbs2ZeqLs1aBiP9ZCVJPfBz/Kt/wAJyLv2E5PmdPUECsXWEAnsJfm4lZOT2YdK0fCrlbiTJ2gEHPp1rTeCMX8TOovn265ZPzl4nU469M1maim1ODgHOATnt1rS1T/kJ6cMH+JSfwNUdT/iJXqc461CBlO5INzYkArugGTjvx+da6L/AKBcbcdj0x+NY853LpRPeIqT9K2ImPkzIR1A5xQxIs+EeNVuR0zaMf8Ax9DXXSkknHU9PeuO8MFU11f9uCZTj/dB/pXZSKDg5PSmxEYBxSMBj/CnHhOpPvTT0B5oAidagYZPFWScmk8sEj60DRmW4KsCDgg8EVz/AIk8HaHPBcavNJ/ZwjXfO0cYZJD2+Tj5yeBgjPp1NdPHGq7nZlRFBdmc4VVHJJPYAZry/wAW+KF8Q6lFZwMYdMgfMW8YMhHWRlx36KOw9ya0pp30IqNW1MKPSorhz5MmYGw0ZlTDAHqODgc+/pXR+HPA9tq+Lq8vVjjjkKNbxLiQ7SAcZ4AyQM849ORWLYFnjkLKELF8Dd91Tg8j866DSbzy5YhHMyOl0CnQECRVBKljgkEdCcMMitm3sYKx6FBYWum2qW1lAsMC5IQdc9ySeSfc0MuO9JYajBqAkhEsTXEJPmIh9yu4DrjII9jxzwTYdMGsGmnqdCfYrlcrxQEwc1Nt4pNvNFgIwo70bMnipAPWnCP5TTsIpSrgc/zrb+Hij/hJ7lsDctmwB+rrms6SElelaHg27tNL16aa9nW3ie2KB3zjO4HH5VUdyZ7HqijipAKxP+Et8PJj/ib2v/fR/wAKB4v8PMwC6zZ8+r4re6MLG3kChk3Lgkj6Vkf8JV4f761Yf9/hTf8AhLPDv3f7asvp5tF0BZOiWZkmlKu7y53b3JXpjpnFNfQ9PhtJCluQREV5kY4GPr+tRDxT4eU8a3ZenM4P9abN4q0B4JFXWrAsykACcc8UrId2fLdkSJFU5wpXqPYj+gqzC8j+ZC0RAAOGByMjI59DmoZlKajMg4+Zsfo39a7HSfB0N/p9pqQ1FkM0fmbOcA5IIxkd81yNXbO5Ssk2cRrRU2UTk4KTIxPfGSKseHJNmrMoHbOAM9CK6zW/BtnbaY0z3D3C+YiFOQOc+h9QK4XR5CupwkE5Yc49Pw+lOPw2YpWbuju9VGZ9McEkCbHX1qtqagA8YA6DoM1LqUcbabaTYJKzqfcZpb+3h3NthQsc4AGfWoQmZNyw+x6cc8KWHB6Dn/P4VsWbCQSjnPk5xWVOkY06NwvK3OSR059K09NBJlLKRmEj64/rTYkT6AceIbQDjczp+cbV2LMCoUckjuf51xukny9f0/J/5eFBx75H9a7J1zIFH93HBoYITO1CowCKY/ykDI9hTsjDE+v8qawBAIOeO9AWEXqMEZNTxRvIVUAsSeAOtMjUllABOSAO9cF478bqjTaFpMwBIKXl0jd+8Ske3DH8PWrjHmFJqJmeOPFaXbSaTp8m6yD5nmQ8XJB6KR/Ap/MjPQCvPlmdbtZSSzqQcE9fYmrdlpl5rGpwafp8T3F1cvsiXH3vf2A6knsKqPA9pqM0TuGeB2ViOQSpwceveumKSVjmbb1NSJ1E0jMAHkKu4UZHJYHH6VqabaR6zLLbGSNY3WIMS2zaol2k5I4xvH0H0rIgjJhZm25ZNkfJJ+Xkkd+vH/1q0tNZoJkuYSDyd4Jx5iMDkH244PY4pdRGrPfXGm+K4b6dI455IVw7AhVfG0k7SNysVPI4O416LpOpR6xaNKiqkseBKivuCZ6c9cH3Ht7nj/EOlS6zotnq1nmZIUaKct94EtuG7PQ5L+oGcZ6Vy9lqNzpl4ro7RvGSAScEeoJ/n2PcGhpMtXjqextHjtTCAODis7QPEcGtwbG2x3aHa0Y7n298dvyz2TULqVZCsbYGaxatuapp7GizdRGjOw/ujP8AKnI02MG3m/74P+FUvDsryNqDTSZVYowNx7lj6fStNGLDieMjp/rAOfxq4xurkOVhn7w9beb/AL4NNa3Emcqyn0IwatSNFGiPPcQxiU7Y2abhjjpwKnkXFw4YchVB/KiUbBGV2YzWS9ajNivWtZ19hTNo646VBRlHT0wcjGaZ9gTA9K1mB6AD8qQx9BjOKYGUdPXA4yM06309ftEXpvXP51osuMYzSwjFzFgcb1oGeS6hGUvxIed4SQe42lT/AOg13/hKXzPDFqpKny5JI+SegbcP0auO1JIpbOymjI3BXjb042sP/QjWv4T8RWekaVLBdwyO5m3ptXOPlAI6H0FYcyUzrlFyoKx0uvKG8O3OCpKywtlQR/GB3+teQWUnl6tbFSP9bt56DkivSdW8W2d9pstotpcRI5T5yOFwwbpx6frXlu4faUmXgLO2M+m+tY2dznacVqek6kQ+guc/dZWOT1pdR2soPdgeD6Y5pbnDaDd5wSEPQ9//ANVMuP3ltD8xIaNSO2TgVkDMtwTpVwcZ2SK2eM9VrY0kBzHn+JCAfXINZWDJp2oDABxv+vBrT0ZhviUnjIx+lMSEg/darayg8rPGf/HhXdzRhZXA4Knge1cLcDy5pGA5j+b6Y5/pXe3RjFwz8/M2R+PNAdSso3bmHQdM/nUiRgydAByefT1oISNHmlkWKFBveSQgBR3JJ7V5V4y8dNqm/TdLaSGwPDvj55zjPI7J7d+/pVxg2KUkjU8X+PVRJNL0CXLkMs18Dge6xH88t+XrXnlrFc6jeQWNhE0sruFiSMcscdB7d8n8aLKzudVvI7KztzNcSnCxp0zjk89AMZJ6CvbfCHhG08MWpYss+oTLie4xwB/cTPRfU9T9OK30ijHWT1JPAnhK38LPFu2TajKyi4nHIAznYn+z6nufbArwS7kEuu3UgI2yXEn47mNfTBmFvcPMcYSN5PyQn+lfLQboxyHBzkUQdwnoblrMxmhjUMfLTbtVic/lzz6d8VoWAEYcMp2DdHvycjB/UcdKzrBQ/nWqKPNZxKWP3VUf3j6HNX7SdEVjHiRVl4RhkMMAEYHY5OM/rTkSj0bwVdLFem23GQXMTJIJCMrKq7iCvdWUEjj27VW8W+B1dWvtJTjGXgHJUeq9yPbqPcdMnwpcyW+olp5UDWd5G0k7piRoydvllR3+Yc4OAMEgYr095PKyGOCDg/UVL0NI6o8IhubjTr4yheG2mVA2MgdwfTAHToQCPbrrHXGumFrf8XQbbHLjAmHUE+jkY9j254Ox4l0PT9VDTQgQ3ec7kGAx9fY/oe/PNcFPFcabcrBdsyqvG4jjBPP0/l+HNGkhWcdUeoeHIy9tqeAhJeFBvHGRvOK144iWYEWZG4ZJXJ5PsK890fxjcWdokEksMJmIWW5mi3IrrkL5hGTtII+cZx3yMY17zxV4i0+YQ3Ftb7+cLG6npjnOMY5GCKpNQWoWc3ob18IT4h063lewKxMrRIzOrgt3VQNpJbbgH2rWuflvJBnP3f5V543xFulkTzrVA69CYlyv0O2q83j1553keSdJGOSFMYUcdhiplUT2KjTktz0cgHvTNo6cCvPF8b5/5ephn+8sR/rUq+M88/bfziT/AOKqOZFcrO8Kg5ppHP8AOuIHi5iOLtCP9q3/AMGp48WS5/4+Lc59YJB/I0XQ+VnZMPp+dVJ7tLR1kc42sPxrmT4pmY5Mlm31SUc/lWZfalcXrqBcWyfMOAWHf3FDaDlYSQrL4deRVz5M8ZJ9mQqf1ArHt8LEozgEkZz1/wA4rprCPfomrpk/LaLLx6oyN/LNc7BAjXNxBlsKwYBfXJ6fga5pR1uddKqvZ8o55FKOynozAj05rlnHE+0/L5smD+NdPJZptK9PcmsXVERJEUY5U5wc9/atKdloY1LvU9Gsx9q0QgHHmQ5IHfKiqyO8mkWpIyBCD7dMVV8NzSyaNbgyMy+XtAJx07fSoLYSNpwUybNjuuM9MH/9VJ7k9CSBcx38Wcb4vxJwf8/jVzRvniilyQwAOT04P/66xojcwLeM2Jo1i3YYDcD/AFGM/wD6q3fD9qDbwgYZiQAM0MEi1fRAT3OO4YD34NdTquo6fpemw6hqdysEZiRlzyznaDhV6k89v0rivEmv2enXDxRsk9zkgqDlVycc4689v/1V5/qF9eardi4vpHmcgxoCTiMqMAcdAAO35VpCF9zKc7PQ1/FXi2+8TSGBENtpSPvS3IGXwOGc+vU46DPTvWRpegX+t6oLOxgVwRuMrjaiJ/eY9h+p7Vu+F/Bt94mma6lL2+mA8zlfvnuEHRj79B7nivXrHS7PSrQWljAIolPIzkuf7zHuff8AlWrajoiOVvVmV4b8NWXhq0MNsN87jE9yy4aT2H91fQficmugjGQDQLdiB8pI65xxT2mtbUZnuoIR/wBNJVX+ZqFd6st2WxmeJJWsvDOr3kf+si0+Ur7Ejb/WvmVuGIGODjivoHx34n0Q+DdVs7fUIJ7qe38pFibI5dT16dAeK+fzA5YkbfzrWC0M5u7NOxeUyxeXOsXmqEfc2FbB6H9K1WUeezhSkMg+Td833R/9fOBWDbKAvlyAAh888cEDv2rfA3QxqVxJEwGDjkHgHr3yO3b6USEjpNHtIru5sLf90WmSVmMpLCQbCxHOOQeQenUZFemWzHU9LtLtyCZ4EkYjpuI5/UGvLfDU7Wt1YXKHcbW6BA6EhgRj9WHXt+NenaJfW/8AY0TTXFvDGWYQl5VXcuS3c+rH6gfjS3RSdhW09DxgVlarodvfQtDPDuXHykdV+n+FdOhhlwUlifPTY4OfyNOa0L87GP4VHKXzHjV/oF5pGXizNb9OF5UehHpTtO1qOOz/ALNv4kexBH2aYnD2zdApbqq9gTxjivVL3TCVzsIB65GK4TWPD9rNMZIJEguMYPdXB7EU1K24uXrEbqmhGGKKRyk0MyAxyp69wR2I/wDr9K5C9s41vJkBHDY4PT2rd0nWbzw3eRRS5e1Rivl5DqPULnj8D07EV2Ok3+nzWcksdhb3dusp3wi3UzQhj1AOS6+xww5GTgZn2Wt4sv23SSPKPsq5yPm9hR9jJHAPSvbo9N0C/gE0WmWMsbcZECrg+h4yD7Ux/DOgu2TpNsD3wpH8jS5Gh86PExbdQVz164FH2fjG0bvpXszeD/Dzj/kHKB/syuP61CfAugOPltbhc/3ZmNHKx88Tx4wnJwAOfSnrDL5mNx+8O9esP8PdGbkC+Xj/AJ6Zz+YqFfh3prTIBd3i8gYO0/0ocWPmiZ2iws9zf2o/jsriP/yEf8BXIOQbty2dk8SOp/LP6122izwWniKWaaQRwbWAfHXcmOPXrXMpo91NbxD92Hi4BL9sD0z6VMovoFN9zIZIVhbeikFcHauSRyeD+I/Wse5/d6iwA+SSPIJXaDj0FdeugNtHnXkYJ6hEyenuRQPDNhcXIMk9zNKCcDeqLz2wFP5U4JrcdRX2JfB86/2UoLEFXK8HGBnrWhblALyHcMLOzZ7DIyfai20ePS02wReQjEsTIzEg4x/ERUE/2c2d9AlzbmSS3cEKwJJ2nBwPypct2LZFE61pSSXMJu0bzIinyIzDdjsQMflWfd+JZli+y2QMcZAR5E+V5B/T/D1rhAzBuCQfarsV2yQCPnBbJPfpwK2VNI53UbLAnWVyGkRiw2kK2M4OcnPX/wCtXS6RaadZy/bLw6dfsFBW1N8sSZ/28gE/QHHrnpXKzMnlnf8AMxAADKAV+tPtzFMVV/LARcFsbc/X1qmQepyeOvEk2I9P0/R4lAwoS6jfaB6AN09qoTeIPHV10Zh7QRDH515vMFF1hMhc9jn6ipsNFDuVpEcdzghh69OKXKiuc7Uw+Mbv/j4kuT3+dmxj6AVD/wAIrqU7YmuFQk9Nn+J965K11W+gQeTezxuTj5WIAHGOh5rSfxbr9oVEer3TDbgBpXyPb7xpcrDmR0sPw7adTI07njqqD+oNX7f4eWqELJHdSk8Y8wgfpXKr4w8QlwDfM7EZ/wBYf6g1PbeP9fjkeNbyQFQWI3r/AFFNXC8TqPEPgzTIPCepz22mxW9xBGJo3MxZgFYbhknnK5/KuIsn36fLASfP2Mqj+8FGdp9xgYJ7cda13+Jmt3EMtiywSRzxNFIZ8fdYEHoB2NYFs6QPBIZSVjKiQockqCOQM9cf0psV9dDcN0be2leNv3qQu8eOileM/gGJ46cV3F34Xttf0B9KnmEYtL7yomXapwkfXByMHdnjnoD0BrmvClrZ6/fJotnIv2go7RtcpjKgZYZGR07fWvRxY6fpVrNDqWvaOsjxohUkvkofkZlGCTtwpxgnaOeOVFMZ51J8JdPQca+IznjhW/wqE/DbyiVs/E8zH0SBifyVq7Gy8RX8imLTtB0m5dTt+0RWM0yv1AbLHAB/zinWfinWZ7+fTtU1W70po4mkRLOOGNOFyN20bgp6cZIPbFaIRzEPw48bbQ9jrGplSOGImhXH1ZgKlj8J+JLJR/anj+xs9vOyS+ErD8BuNa2szaPeJZ+Te6hdyTQCaQ3E5llVyoOw7sRjB5JyO3BqgbKC1hZ5bPykCAk3d6iZB6fIi8En35oESnwimpRqJ/E2u6md4Kpp+ksFLc4+Z9oJxnr2rG1DSZtHumW3F8k0a/enjCOg6niMkDjqCe/Sn6T4m1HRohDb3aMrTpODLIz4Kk7R3zjOM56DHarqPeasjq2lX9+87PI+zdHEGY5JGDtPOOWGTUuSGosp+GvGM+i+Kmi1WxW8t7jO0wzGMOeu5gMq3oeMg116+N49V1ezsrXRre1E86xl1mdiATyccDP4VhxeB9WvCu/S7S0UcjfJ86npxjJ/A1s6X4HOi6rbXtxeB2iPmJEiHBxkDJJ/Hp2qXK5SR0yqP4vu9W+leRXEf/CReO5o3kdFnlbLKeQoXI/lXp+tXRtdInYHDsvlqfc8V5t4PT7R4ruJgASiSsMdsnb/AC/nUPexrHRXNRvByxPti12+jJAP3scHPT5h6GlTw1qXmr9m8VXajcACXf29HrqJ3UTzZIOyKMFccjO45+tU4fKkvI4/3brJjIkj4HqTn2H6DrV2IuznLezLT3Ee4CS3iLuWP91MkD/69U7rWY4LmaCK0QlM8tISOPYAev61uWUsaXl9K2CHhOfQ5TFcZqrLb3lvMOVmQM34gq36qD+NYSm+h00Ypu0hW1y/ARlZIx/dRBzzjuD6Vn6pquqiAP8A2jc5MoBKvtGCOgxjv/KrhGwjjPVvQAf06VS1Ab9ImjDvmMBtg6DB75/H6ACiEm2FSFkyvpTSzag3mzMzYzukbcevPJ710MdmYb25IkV99ssuAMHAJ/WucsFYamIxs3HrkbgAR1/Lmt2K5eK9j3I8Z+ztEDtz6cnjnjn1HvRNO9znNi80qxjYBoImDKHBaNSfmGfSqLaLpJOZLGLn+6pB/IVr3DeZHBKONkKxMPQj/Ec1SZgwzzyB1qU5dy2kUB4V0qZyEtnwRuASRuB379KhfwpZKuI5riNiO0wI/Iit+xJGj3pXG8XEae5Uhjg/iBULsFAwenGM9arml3Fyx7HPt4TjKBI76YMcAK0St/L8aryeEZpOVvoDldwLRMMj147e9dHGzG7gVGG9pdgLdMt8vPtzTolcs9qkn3bZostz8ikHP1GDx9KanIXLHsconha/iCnbayFv4fNII9DyKgk8ParGjFrNZB0DpMuP516DYN9o/tYsBuS0RkyOmx1H6j+dV0IdB8o3Z6H1p+0kHs4nCLpWowbTJpl0W5+ZRxj6jNUJra5jnLz28qbiR80ZH9OleimYxDqSvfjmr0duZLRrjzSsCNgPz94gH5R646+maFV8heyXc8lMaY3b14+8vSmRhXcKWC5/iPQV6nJskZnKq3OCXVW56entVCe1swd0lnaksed8Kgg/hirVVMl0zj/DzOmp5B48mTd+VdHJcBCQRg85PQEe1dV4J8J+H9WMk72TRzxEAbJnCsrAjlc9eD09a72z8N6LYENbWNujjkN5YY5HfLZNTKV9io+6rM8wtLiabT4bKPSdQv2jXgefJ5YOcgbFyuBnnoc1Yh8Ka5dzPILCCzD4JV5OhA7DJOfwJ5r1Ej7MihSxjBAKsAMZ7jHueRU4yhG0DOec0OcmKyPObT4c6irPLNqz28ZGJI7SMjcM9CTtz+Va9t8PNHiljFx59zIGA3Synrv25wMdxnr2rrJAxgfJ+YgD9RSSxKDcKsXmLsDcnBU88j/vkH6ipbb3KVivp2haXp8SNbWFvEcfe8sEjPoTk/rWmUA2MsjMpbaVLZHPGR+Pb3pIU3wxyyZLlRkFjj/OaDGjOpbGQwKnB4UEZPtVWFcmMqRsFAJYjIUDmqGpLI22dk2Ywm3dnA5x+ueKtpGlupIYtIc7mySeev0qDVGC6duyDukQkjoeuP5VSuScP4tvAsUUOeFy7D6Vzfw8hP8AxMbknHyImfTJLf0qXxVdmVrtxjCxso/LH9av/DuHZolxIcAS3IXJ7hAP8TSWsjR6RNkyES3DGQ7mn2ncMZ2qo/xpvmLHcRNlBhwTk4GP84/Oo5TG1rE4DFnLyY5yAzHupz2qCPi6jyX4cc5bjJ75X+daGZkwQbo5WXcFKfNu78CuY8U2jLo1ndpkIsrxHH0DD/2b9a6ltQtYrJ4V82SRowo2xn0HUnFZGoN9s0Q6SbSRgZRL52QCMAg8e4Jrn0T1NrSa0OV+2M1tHjk7R+YqOW4eSGReQPK2ZxyTg/z5raj0u3gjEZtpnZeOXz/KpEQ2zlUtYlzx8oyR7+lJOKeho4ya1Oe0m3mfUbc+W/lkDdJtO0cdz0rpylut9EyA7AGD5IOCenHf/CrVtJJLgCzlmfHAKk4rWFrc+WzSWk1qByWuEWAD/gTEfpSlJyd0ifZxW7KSfPZGXkRn930wWYjkYPp/hVR4yQRuYA9RgHFabRo2lMiypIsd4wDq24cx5+936EZqnImMk+mBnsP8mmkQxLDcYZo/vRZDXG5sA4yFJ9ME8f1prFtu1hzjnB/Wn6Xgz3kGcmW0bAx1ZSGA/Q054w6EhQSFHI+lAFa1VzdQTOAqRSo+Ac7gGGfp9KtXEZt9c8mL55zcSQhcZHJZSPyJqjO7QgyLhQvzY9R1rTmZl8XwyY63yNj2Yg/+zUxFfRrlba+cOSYprd4nOMkKcc/mAac0T2xkjOdzHhychiCO/p1/OotPge41iCBWCltw3HooAJJP0AqQsGJ8ncE2nG7+LrgkdAT+mcUhkgiV1ySSd2D/AI1LE7HTJYUYmBLtgv8AEAfLOefUgcj6etZ0wZojG5yGwepHTjHFXrCR3s5pY/ltgxjkBXKh2HCgDvgcEcDHviiwNkTqTkjkY5X8OD/Ss+7kLHhgQM9e3+RV55DHk7SD/st249fas54hcysskwVD1VRgt3656fSmkI674YuwvLjnP+jIfw3kZr0h1KjAxjkYrzn4fM0Wv3EB5V7MkKOxDA5/z616O5JBBAJ9T3qiWVbo5hJJzkqvI6/MD/jVhw5LcEAHuvFVp8hRJhW8vJII6g8cehqUoFO0/NtOBnnigQnLMO6qQTg5ye3+P5VKRh5zg/6kD/0Ko2Uf60Y3oQQVGMjPIP4U987rjaOBF+f3qEguTRgpCnJAwuPc4oCrvRhnIYA4PUHPX8qnRAYVPbC/0pAjGVQq52Hd074/wNWkTcTBVVySex/PFYfirULXTdNRJriKJpZS0aO2N2F+bH4kH8a2ri8som2yXcSsCCyBgWH1A56iuK8dzadrFhBD5bsYJGfc3yfwhcevvTbSQRTuedaxfQT20gjnjfcwGFYE9c/0rtvCINp4Nt3UfP5cs+B3yTj+QrzXU7C009hLCrCR9wOX3DGK9V8hdO8KWsJAI+zRREMOpYDP44JqY2uaT2K9zEEFuhRSsaIBuAPOO/ykd/UVWtkDXsJVIseYqg5AY89OMGtx7a0uXBjeJz/CyNzgdCMUptJYLyFY2KKzDAYtg+vfH6VoQcjHpTTQK6wSEbRl9uFHA7nApsw0q3Xbc6pZRygfdR/OcfhGG/nXAMdbviDJKhOODPIXIyOvOcVNb6VqCbi9xAxz6FgD+lY+xXU1+sdkdU+q6FGTj7XdsOzKsQ/Usf8Ax2oZfEkKJ/oem2sZAPzS5kI/Mgf+O1hSW2oxLvkmt1A4y0ZHP16VWa6ePAmuLf0JCn+gqlTiiXVmy3feMNcYtHDNcKmfuwnyVI9wgWsSOTU5blpW87zSMbsF2P48mtBdRVpvLhtoZjkhSoYlvoD0zVibWb+GEs2nwxgcBipJH6/0q7pEe89zT8M2d4svlvLI0EpLsrjDKcY79/zq9ezWqAiO73ruzhcgkeh44rl4tflcYkmkBHACICAOvqKI7+aS5UmWQqH43KAPxB4rOSuzSKS6mtHrVjY8tHcxtuDeZjd079c1ryTq7bsYckk7ejcZz7H6flXO3EMNxERKEc9jEyc5/wB3Ga1oHLeXuB+50PUECpexTQlyxZSuwksh4yOR09qsPch9VtJxubD27uyqSBhU3du2D+VDIr4+nf09Ky5dB1C9unutPnvw+RhIYyqKQME+YSF/Ac80RXNoS9Dd0MxHxhZxRyowkklhGDnIZHXP6g1FC22JARhgNpzxg4x/9eq2meDtfRozd61FAiHhVjErD+QHB9a6uPw5GyJH9uuZJMYLMqkH0O3HH51bpshTRzUxLRehz09Tgdf896uaKFbQtTRzy80c0fo2zIfHrjdk+wNZC3STriWIgE9FbH/66sR3saXEUy7o5IfuYXgcY6D2rMsmZQ+1Xx0HPrntWfcxgu5HTPUd/QitKR0nkDxROsbYYsqkqCM5X1GCPpWdcZZVkHKsOOeeOwpoR03w7lebxBJwMm0k3H3DLjHp716jIoBIxx06dq8q+G+7/hJWYo3EMuMqeM7f8O9eq3EkELHfMgOegbJNWiGU5lzEwyDv+QfjVox7gXByOp4zisbVdaXT44pxY3F2zMVUR4UDAySc/wCFcfe+Pr596qjaeMjAij3OfqzgfoKL9SlFs9EuF2ROWdY0PGXYKM/U1Wl1bT2mkhgmM8jx4xCucDnnPTvXldtrNxqPiGwWe7nuVkuY0K3Db/lZgDgZ2j8BXeaNDs1c+0Djj6rU31G4W3OqtJ7i6lSNYkgXAyT8zdh+FeQa1qmq6u0sV3qt55KyOvlwt5SHDEcheM49c17Lp+BOuPVf5ivBLl7pb+7MMc8KtcSsRGpAPznkkDn8TWl7akRjzOxa01f7M2tBJIrFcEkn5h2zgc1Zvrm8vYWVbsI2Sc8N+Y4qjDOm1Wm1YoepQRlyD9c4qKTVmX5R5DbcgO4PPvyAKXMmaezktjMvdM1mRx51uswH3TGwwR9DyPyrq5PHt2qiK98PyIBgfI5wcdOq1St11GSGJ1tY3hchlclVBHTgk+3WnvqMMS4xMr85AX5Qc+5GaFboJxl1LH/CfaRIzfaNJlQ4+XciMO2cjI7ACr8HjXw4btVjNzDEzAncjrs9QME+prnhqdm5IlAO49Auc/5+lRvFpcroQluSzAncoGB/PNO5Nn2MT+244VH+jg4A+8D6CqDanPdEhrloo8HnYT+gqJ4pGwrtvBAIAfI/+tVqGzjC4kgjLZ6mQ/yFS2ilFvZFG4Vy4IuXnGM/McYP0JqaO3vJFDDTgyjncYuo+tacekq7lirIh/AKPqa1bbQrWR3FvcfaZVBIjiidiT2A44/HilzmipPdnMLbIzFZPMiJ4Kxc/wCAFWxo8O3MbSbz/wA9GA/9B5rtdM8La1JKgXTYUXkYvXDDHrtFdBH4UztW8a3jxk/6HbiLJ9M8k4x3xR7z6A1Tjuzze20DUWTeq2ojBIyZVU5/4EMkVc/4R+5e4zJD9oKH5/s4MmQMfxDCge9el23hvTYgpjtYzIOQzksT+JyB+Va6RwCUB2UEfKML09vSq5H1IdWC2R53a+HrZgd+nLCcHHm3Rdv++VXn8aybuH7DrM1oDkRylRgYyCAenbg17CyW8keHBlUdAU3AfpXlfjCFLfxnOkQ8tH8hwuMYyij+hpSikiVUcnqQoN3CnjBNdT4YEcujAvuzHPKowfcH+tc5FCfMXOe4IrpfCMCSWF0kl1FDHHdHO85OCi9B36eopU9JCndo1zHHngAD35qe2iBnjVVYEsDgck8+lPNxoVijFna5dT0zgfgByaryeMruA7NI0WQc8P5RRT+mTWrkjNRZ5VIpjuZo+dySOuMf7RpwBL4GeM496fqZkj1m/WZFWQTOXVc/KxOSPzJ/Co433SqT0PasDZHVaBbifTgxGSxccVkeHrVbjV7KAgMHQ9Rn+Amuq8FW4n009wJ3Q+3f+Zrl/Dsvl6/pcmcH7p/FCB+v86EgbO+0vR7e01FJVQRSOCrmM4Ld8EjqOM10CWcJkyqgL7Vl2jBtQtyMnDE9Ovy8CtuLuM989apJE3M3W7eAWcG4DAkI5+lY32SGQYyDk8DGc12tjJulkjUKcAZB5wMn+tSvb2s2fOs7Zz3JjGf5VtF6GclqcLBpcEd3FIEi+WVTjYowQwPYdauabj+2Tzn9y2Dj3FdNJpGnLG8iWnluilh5bkDIGemfauV0mQNqoB4YxHB+lZ1GuZGkPhZ1untmcHoeP5ivKJ/Cd4Zpnj1JsGRyEkVxjLHj5SfWvVLH5Jt75J25Jx2zWc+h6mjE+UjgksCkg7/lVJJ7k8zi7o8xbwjqKxM/mW8rcYRWwW9eWFVZtK1aBc/8I/ExH8SR7z9eG/pXqD213Ef3lrMo/vGM4/MUwRLIMsAT/tD/ABp+zixqvLqeNSWGoktJPpdwFUZLyKVCj/gQPFTp/ZhQKklyzYyfLVcZ/P8Awr102fdWUe2MYH4VBNpNvPxPBbyEjHzRqf6UOl2ZaxHdHkj312qhVm2KBgDZjH4kEmiLTZ5WRt1sqORy0qr39OK9Ofw3YKQRp9sB1yEwazv+FfaXcTqym6hLEHcJQ3/oQNS6civbQORtPCGr3T4gsWSAgYluD5YYY64PP6V1Nl4Y1C3CJLqqL5a8JbwLx6DJX+lbf9oRRxrumjGVXndnHyjOasxXCjayYCnnkZP4GjkRDrz6GVa+GNIt8yy2TzSf3p23fkOn6VrxRrGgjhQxoBwoAAxSC5UqC0mRjPofpioTqtlhlExd067QXI5qtEZNt7lxR8ucZxwf/wBdO+cjOAM9c9Kyn16BFOwsrp95cFiPooyaqXPiK4zOsMUrCFwpIA+bPcAZJHHXIxwKTkkXGlOWyOgcpDE0s8yJGo3FmIQL9cnist9f0mNcRXJuO+YSMEY7k1k3UQ1BZ4p7mHzZYpIRlsYJGAeckc+471599haD78bxyhiG7YYHBBx3B/pUc99i5UXHc9LuvFKxbnhgiXA+85yx/lXnfiPU31HWXvXWQEoiEspGSuentjFOjE6kmG4cqePm5/8A1Vcju7hCFaCKYngdVz/Sk2LlsX4hJvGEPJBB7fhUlnMtmLkXJ8sMwZOQA3GDk81Sj1e225a2eIf3lAIz07c1bims7nKLcLuJJKt/9elYotjxVpVjISsBuBjGNxGR7+/FV7n4k6kqFdM0qCI/ws/zH8hT20WzuM5iQt7cZFZ83hRhzbzyI3XBGQPxFO5Jy8+pXOoXc95ekm5mcvMWXbuY9Tjt2qxDLl+hzntzWlNpWs2q58sXCegw3T2PNUHvUifZdadGregBjIpAeh+AJf8AiXMd2M3RAHrwuf6/n7VyGjErremjdnZOAOPqP6frVzRPFlrpWxYI540LBmG4N3z3FZ+lyBtcsJBnm6Vh75Y4/n/OhDPTrDcb2D5R1Az9VNbqkqGc4AyDljgCsWzQC9tv7odc9c4+YdfwrUnUpKrIhL44PpTvoSa2lNFbTTXEsqYkTbjPfOc81Pc63ZxITlcD8q54tJKQ0jqXPAyPxpqaUt1LumbzMngAYFNSYmkR6prp1BHt4meOJ/l/ckq5H1HIqppulzreCe3SToR+8xgZ+nNdJBpNtCA5EaqP9jAH5U83YiYRwwq6FchsFefof559qdr6sObSyJNN0yWBt88mdwxtVcAD6k1en1K3hUkMJCB0Qg1nH7RcAC4lOO6r8q/kOtHlRRITsVSn8Pp6dOnFWSypeeILkSGOG2eMscLtwW/EdvqcVQu/NNyx81S2AHVm+YHHJyTVtr6SdykQ2hjg4Ay3b/OKSS3RoUiXAdhw7Ny39B/OobfQ0il1RmGaRcqQrNxhVOcjH8x6VKsxABZG9gDk1cOlvGpZCFLrtKnBLjOex/w6c06Ka4WMYVcDI81hhhgdDkcdf/r1SnIv2UHsVWuVi25+Ud2YY/nUsVxGZ0CqB82OtI26beyKNxBQkgYYEe3BPvzUkVqWkUSKrDoQ43Z/OtE31MZxgtmeXRi3VF2tuO0ZHvgVOl28ShI5WhGdw2njP59OP/r1hRBimQ2AQD8pz2FWh8o+afPt0qTM07rVLtnKuI5ocY2hyMt2wDxjPPf9aorfSBrYXe8oufOUoGSQ84xt4QYxxgdDyahe6jhX7wJHYHNUJtV34VSM44IOMVEop9TaFVx6G9FqNiD91CDtH+vJBPsp45qlNr9nBEPNJldJtpdl25PePj9e4z2rlLzzZpBIJU3Bsggcj8arpFPbqdrNtLZKkggnsec81Cp2NvrV+h2L+IdRZgLaFUi5yTtbp154/lWbLqCywzxTA5izLI6HJwcc8jkZI4zmsgTliHKruHQyZ3fn09al8sSSoZnllgMeSAdyCXBxkLyV/DNFmhcyl1NZpoUZAJ4UBVT8wK8YOBnkE8083LIqSEo3qEO4+3Tr0rOtY7c25DbDKM7hbHbg54yT7e1NvEhSMMn7nDD5nj8wkY6E9M5+lK6HydjV+0RFRwCVIHB6n0oc27IckH5+CeMjvz+VZUfntJMY1aNJPnhWVw7Infg8kH1/I1aQyyQPbzW7uhIBO1ogPQAnPpT0J5ZF63kMLZinZCCWxuOOOvHQ/wD660ItT1G1KjzhIo6iVQfwJHfrWDb3lqsQfloQRHkfMAx9SOQTjg7e34VcUoCyIUaSNyHWJwcYxng4x+vt7lhepuR+I7iPYJ7FJAxALI2Ppwf8atLr+iXaYvLZ0UjJDx7hXP8AmlCC424I2q/BPtz7VG7x5KyfKTjII56kf0osI35NJ8L3blrVkgcfxRtyPXg5H6VWTwubW7tpra/SZYZFkIlXaxCtnt649Kz1ihllBB+csH4OCOnNMZJPspjSWbbj7iMT1POB69TQlclo76DUI5LtGVmwjFm5GQVOOewGT1OAe2a1l1NZcqjnPYqck84/qK8u02S6sJwpMro7osrIhOMN8nA5Yc5x6+gr12z022NtFEHDyDHm4CglhgnIHGRkcduKqdO3w7An3KqSGIsGXLckqAS3c4/zitC3891/1aLu6d/xxRLaJDbyzmNtqKXOwFicc8Dv/wDWrJuPFcNrctC8fltz5azOI3YAZJyc4yeOxzn604QbdgbR0EMSKWDElypJ5zgf070jMgu1Ixs2lCSQMEHPTuP8ax01n7bEFsYpFZeJEK5KEAEqfp0OM0kEVxKSXYyNySqkjvzz+NU/d0YKLlqa8l9GXIhhMzhcZ3YANRyLPcuDcs8cOMhACoB6DOP59aIr+GFmDWpUdGC4YKen4flVj7fAExjylxnGcHB780XQcrj0H20doiZD/N3AIYtRPbQfeXMS9yWK4Hqe1VjJ5mNkYbHJkkXr7Ad6QR/3sMMdCMj8B0p8txc9iJ9ucxSmZsn5iAwI7HP0/wD10/7P5uPOO4joB0H4VOixooVQqgdFAwB+FLhSMn8MVSikRKbYxYkX5to9z3p6hQ496GfjCjge2KWMEsrY6+1UQfOTawyoAFX7oxg+wqs+pSOW3ZA6DjrWEBfQLgKHXHO054qWPVFB2zRlSevasWuxW25qsxlO4uPy5NSIUIw2AB61Tgktpzw5BBznP+FW1RSvyNkeuc4FSBMEjbCkEDOBu6VIFXONvGRgg1TcSRk4XvzUkd2oUBhjv0/rQBaESuCoGBjHA/OmGziDA4RTj8qfFcrwAMcdKa04fAyPpimBXa2lIKxXhX6jOfXrUYS4iSZMBxKAHMShSwyDjHTt2xVnKdVQjkZ5HFSLIFPG3b1B6Yp6DUmupCtzIsqM6xNIqiPfOu1sYxgkZBwOMkVZbUn3fMLonIxghl6cfKDjHHrUbhZMlySc556Diqklupberkf7tJwRoq8kWGCyz+RNLEI2QziNQIw8nZWJyA3Xk5x0GM1ehVPswa4MkLAE4dTJyPQHJ5FYRaZVKhty/wBKlS68lmzEqse8YwRnv6fpScH0LVddUbkkoEDPayM7cE7yy59j0A/M037c5uWjVVuFCBkxHna/8Q+XGVHIDYrLS8iNykkkbyruBMbKrB/UZxxn6VNDLI9s9m0Eqo0xlV4eucYAbP3gMcZOQc9c1LUkaKVORfS4h3DzFjQrjOyUBvwHGM9OaezgJxfAbtpCXCDdtGOFIPK5xxU0VzcSH91FGG3KxkuY+hx2zxz14qHWtPtLi3E9xqNrbXUZ/dNHIGxz0OWJx+HFKMnfVFSprluixbrepHaXM8k1vZTRGOJ44n2Ak7VKlgOOSSM/zxW1badqKhopL9reZ1McbyYSaVcguAueDnO7B54BxWBZXGtWWgTWEGqT3VqyYa0MglhO4jOB82Ov50XOtWUFobqO6ga4Z5UjWTO+3kXBSQ8HcDyOeciqqTnLSLOG50x1H7Nby/a7+Z7hIxIvylDAQcZVR8nAIXk/MSfUVjXV0FvVnlkNwoAeRQ29I2IU58zqAMAZ7Z9ORz58UXtuke10LxDAaP5hvx1yPl/Lnoetaujak7Yn8jzHjUI00idZGznPPIORz7msHUqwh72onK51Wm615d7GVRntVf5WeQscYBXDD7xx9fT3PWW2otPKJ3uRFDGxP2WBAFkY/wAbtj5uOg9eo4Fcvo1hBDaeZs2SwhmX5vOTIOGQgdPcgA+2BXR6KHlG/wCzxLHhv3scucMDyoBAxznjAI7041VU5Y6lqaSNMSebJujQDcuwyMMHHsPp34qaKBVIJfJXpk5xSxjcCQMf7361KFc9gOehNdqSQpTcgBzuKsWxxz/9anKewXnknNRPuzgc8YyOB/8AXqSKJt2cbfcetMgfuZcZ4HpinA57/h3o2YPJ69cmmNJh8D5vfFAE23B4x7UigNtbofpjtTVJIZ9n5HrTgVUh5PlHYnpQB8sggoMYJIFQ6im+zLYBK4Oe9ZyXU8Z6g49ec1Ya5EkLI4ClhyQciufkalc35042M7JHQkVYjvrqLgSkj0JzVcqV64PuDmjdxitmYmyuq3MDAzxMBjjcvH51Zj1W2lIBG336D8qltJhJZQbudyAc02TT7OY4aNQe7IdprHnV7NGvsm1dEyeWcFXPIzycinqegBIYZPI9/ese7tJdMjE1vcSBSQCp/Sq0WrXMZ+bDD0xVJX1RDTTszptzhTmNjgcfLTXUMehBxng45rLi16NhiVCDnORWiL+C4AAlA7ZB4p2aJJH3kDJHA7jtTcoFPILHtnpV6G3lmBCqrKeCQeatx6eF5eFck9M5zQgMcW8hIcDg9zUqWEzfMF3E4+Wt9LeGML8hUDuOQPxp8jBUyirycZA7VQzPhs4lTJQA9yP89a04fs4TgdATk1TJdjnBPXJx2p8UUm4bQQe/pQI1IdjkOyL6jPGM1BqXh+y1OCQraQx3gXdHM0YIPsR6H16jrUkEUmPmY59Cue/0+la9orJtTO5iOcDk+/tQBwOrXlnoFzDp9upSWNCZtp2+XIw6ZH3scdu9YmnRTxGW+FzJbi35fy2DMSxxkA8YNaXxDiNp4saXzN8ssSTMGwSjHjHHTgD3rI0kF5w5bksG+p9/WofuocY3Z3N9fRywvpen6ncXmljMt2kqrgSADbyAMZ6cd+OcVPp1tHJaItmLnbcxNkxD5nKndg7duTgZx6qeDmoNFtYnNlYukbJJKqSYXHmKWzhvXuM9cGvUYYIlZSI0GwkKVUDAOAcY6cADj0rnjTdR3voVUhyMpaBa2yaaEtrgXVnIXZHcYfLH5lfjr164POD61uwQpGXKxqvmNubA5ZsAZ+uAKhTbuyMHPLcc5q4mQvUdM811xioozH7x1A5zxSbmLHn8RSbg6/KM+oxTCoOQXK/SqAlTaFyMkn1H9aduLfLhsY+tQg4cIzdenFWANozkYxzTAQA5OBnt7/WpgMHDJx6H+dUp7qG0QvNKEUdCeCfauI13x9JJMbDR4GlnIOQnUe7Hoo+tJtLcai3sdhq2vWGjwNLNIrMo4QMMZxXmGueO7zV5wtvhLdWB38gfh61U1LTHGnXF5qdz9ouDDmONOI4y2Ondjz1P5Vzyv++SJV8wsRgAZ59qhVE9jeNK2sjj2DYIAA9hUTJnNaGnTQKxW/O6EjIXbk5+o5q+brQ16W27/tmf6mk5NO1hKKaOeETk4QE/SnKqjIkzn86fLMXcnAAycAdBTGfAwRn8KshxRbgv1gRYsHYvf/61XftsEygCTB9CcGsQ4PQYppGKh00xqbRu38m/TSuclcHJ69f/AK9YW7mnecyggZAI5GeDUeaqMeVWJlO7HA84IrV0/ToLu1L+Y8cocjI6Y4xxWQCQc1paZcmJZF5IyDRO6joELN6lo2mpWj74LgSH2bB/WrkHi3VLRwLhAyjqHXk/jUX2zeoIHQYNI0qsp3DI9CMislUfU0dNdDbtfF9pMcTxFRx905z+BrWtbyxvfmS5jwexO0mvNr4ILkmMAKQDwMc1AksifdcitVqZbHssMCld5kULjkZqxEEViGGTxgDkn/AfWvJbHXb60R1hlbe55Oece3p9a1bfxndqu24UMoHIxycUCPS2mtrVS8ksS7F5AOTjvk9K53VfFU0kRtdIAt4jwZx98/TPT69a5qbX0vyoZ8IOiA8ClQK5ZomBAPcYoC5UOjx3Ds8jzM7HJcnJJ9T61c0/R9sqrFM7nj5QmTU8VvcytgM20DPOSK2bJGRwseSejSbSOfak9dxptbHT+G9GisJI7u9lMs6YMSAAKh9SOpb07CuxVi3zKOCPSuO08zFsoshIzjg4H/1/euhto7kgKRJnOTgGnFJbBJt7mzHjHzH5uuVqyJAUAC4OPTrVVEkCBfKYewzT/n5+Vs9MFaoknLIx+ZW/76p6vkDOQTyKhCMeSjc8ciqeqava6VGftLgADhO/rQOxrKVEZYnjuewrl/EHjjT9IQoJFmk9jwD6cd647VPFuqeIZGg0uJo7ZeDK2Qi/j3PsK4u8ikgvmR3kmkR8B2GOmOg7VLmk7GsKTlqa+t+Kb/Vi5llaCM5ZR0Y+wH8Nb2nQQ2Wl28aIibkUvt/iYgEknvXn/lT3cmyON3YnnAJ711es3VzaxKwXCD5d3PB9K5qyc7I6oKMLlnWPMv7GSGJ1VWZQWbuM5J965u6lbSpI4bUEM4yZjyz9OPYZ7CqDzahqMhVEkx7ZwK3tD8MSvdRFonkkZh16DmtacOVWM5yu7s//2Q==;" vertex="1" parent="1">
          <mxGeometry x="680" y="170" width="86" height="86" as="geometry" />
        </mxCell>
        <mxCell id="ZAxafMs7CnMFeSQ5WiWw-4" value="" style="shape=image;verticalLabelPosition=bottom;labelBackgroundColor=#ffffff;verticalAlign=top;aspect=fixed;imageAspect=0;image=data:image/png,iVBORw0KGgoAAAANSUhEUgAAAQAAAAEACAAAAAB5Gfe6AAAOaElEQVR4AeXBB3gUBd7A4d9/N4GQQGgJJXSioCGgSJV6IPIhzS7iKdLEAupxWODscp56Ip8egiIW8DvEBwse4gMoWOhIICBFOEMIIJBQFIGQujufIMjOZpPZmZ2d2X3mfQWHExxOcDjB4QSHExxOcDjB4QSHExxOcDjB4QSHExxOiAADHj36l33YQ7DfiHdASd+BLQTb9f+c3+y6BFsItiuO5YzG+7GDYLfULM4atAg7CHZb14mzvr8MOwg2Ey+/K66MHQSbdV7LOc33YAPBZs/9jXMeeQkbCDbbms45G9tjA8FedfI471Q1bCDYa9lV/KFqPtYTbDV+KhfMvAfrCbapfHHN57viq++XWE6wSftnuiXib9cbWZl5pVhJsMmiAQSi/LJq0g4sJNhkygQC+3n2BCwk2KRuZn0CWrnsWSwk2KXzGiGA/AV3FWIhwTYf3kQAr08owEqCbdy7Uinj21sOYynBPh1XxeJn2+A9WEuw0djXUNv/4AIsJtgocW0aKm/+NR+LCTZybboMlUGLsJpgo66rUJs+DqsJNtqehtqhft9jMcE+qVn429KxGGsJ9imOpYzM3sexlGCbzMsJoKB6CVYS7LK3MQF5qhZiIcEmd79BedxerCPYRKFcnhisI9hDoQK59bGMYAuFCuU0wyqCHRQ0nEzEIoINFDQVV8YagvWO1UJbYRUsIVhu2jiC4lKwgGC1D4YQJMECgsWGv0vQhPATLKYQPK+bsBOspaCLSyHMBEt5BX1cCuElWElBtxgPYSVYaM2V6BdfQDgJ1lk0ACOW9yGMBMuMfBtjPLEKYSNYZXUXDGt4gHARLDJuGj4K49Dl7dGEiWCNxyfj46uXh18fgy4tfiQsBEukb8XH0A89PV9uR/mKlh4dFoPapBcIB8EKo2fh46qvIHFef8qX/bCnS9suCajsaEUYCBZ4fiIXeJvvBVwLBlO+7cN2121xatZFqHjdmE8Iv+PV8dFxA2csGkD5do1fkQ/1Xx6KWu2fMZsQdgq+OmRw1mcDKd/RW7718pv7X3Gh0nMFJhPCTLz4uuljfpfRjvIV3/aJwhk9v6iEyqQXMJcQXnVz8dV+I+cUx1KBZ55ROKvx2hRUJkzFVEJYTZiCr7EzOE+hIvOGlfI797t3oPLp9ZhJCKf8eHyNm855Lg8V2dylgPMGz6mBr59rYyIhjEpi8HXne/yh4X4qcqDFaf7Q4t0u+MpOxTxC+HgFX5dv4YJO66iI98rvuKD67OvwlXkFphHCJbYYlb5f4mPIB1To9rn46vVaGr56f41JhDBpl4HKwM/x9dTTVGju7ajEzBnixsf4VzCHEB6jZ6HSehsqG9pTodVXF6DWbUESPhbe4MEMQlgMfxeVqvmoZaVSoZLLfsDPJbM74WNVTy8mEMLBK6hUO4WfE9Wo2Kh38NdwxiB8lPRYR+iEMFBQq34Cfx4XFZszQsGfTL9H8HHtQkImmE9BLekYZShoODRoI2Vd+3IqPt67k1AJplNQSzlEWQpanpxMAHdMqYOPZf1LCI1gsrveRMWTcpiyxIuWZdeeJoBLPk7DhzLs34REMNfy3qis7kYgscVoyev+I4E0ePz2qvhYO3InIRDMJF7U/vEYAVU9iaYh8wko/u6hHfD16ngFwwQTvT0Slcz2XgJrvhtNW9oqBCTNRz2QgI/cISswSjBN892odV9FeXp9habCVtmUQ7pP6FgPH7lDv8EYwSzFsais70z5/vkw2l6YRLncLa/v283FBV8MP4QRgjni81GbM5wKrOuEtpw2JylffLNBd6Th460xCvoJpvj7Y6h4u6+hAldsJBjD/o8KuHv0vLoLPg732oFuggkSf0Ut87p9VCBmaW+Ckd13N+Vz17poRJtO+Hr/dgWdhNC13InawusUKtB02kCCs/jJzaWUJ65h3cReAy/FV2ntE+gjhOzvj6H20L9KKF/c8OkugnVwy6ZVG48qlCWuZo08rRsOvlTwpTTPQRchROLFz/J+pQQkleu2uq9PZXT6JXfDxm15B094RcEdUyqVqscUpSTXbFytQZ3ayamCnxs/9aKDEJq3R+Jn/6hlCmruxKaX1OvUpzah8HjdHkrdRa4TCS6Id1Geo6MXKgRNCIlX8Ld47B7Ok/Rr6vVsnqi4sVTmmAyCJYTgT19TRsnMyadOc1bl28ZdgS1Ord/6U9yq1aVoE4w7kEIARx7OPnLilyZyeddRcdjqp3s+R5NgUFJOAoEV5p2qdDI1UbDf1AloEYwYNiWZaOCtcwwNgm7dFycQLbquQYOg15oriR73voEGQaesVKLI1cvQIOhz3QKiiJJ8DA2CPlmpRJHNbdEi6JMfTxS56WO0CPp4heix+yI0Cfp4hejxyY1oEvTxCtFjzCw0CfpktCN6DP4MTYI+/xlM9LgiE02CPg+9RPRotQNNgj43zyd63DYPTYI+/RYTPR79J5oEfTquJ3pMH4cmQZ+07USPpf3QJOiTmkX02NsUTYI+DfcTPUpj0SToE1tM9FBcaBL0kaJYooegSdBpXyOih6BJ0OnbHkQPQZOg0/ybiR6CJkGnt0YRPQRNgk7Xfkr0EDQJOnVbSfQQNAk61ckjegiaBJ3i84kegiZBp9gCN1FD0CToJCcTiBqCJkGvw8lEDUGToNfmy4gagiZBr+9bEzUETYJen1xPtDiWhCZBr+cnEi3evBtNgl63ziNa3DYPTYJeaduJFlUK0STo1XRXJaLD26PRJui2syVRYck1BEHQ7d9/JgqUTHlMIQiCbjd8TMT75f23NhMUQbcq+5KIZJ4dMz7fT7AE/V58hEh1+Jup3ynoIeiXkl2ZSHTk1q8V9BIMuHcGEWj6I6fRTzDAPf8GIs6ODqcxQDCiypQe6USYXt9ghGBMUqe0Kp4jlQv37C0upVaTZ9titwYHMUIwhWtza+yVeQWGCOa4dwb22tYaQwRziBd7beiIIYJJTlTDCgWr13wW3/GyIbH4+W9LDBFMkpVK+OWsyPxPjuKWiwa+6EJtUzsMEUyS0Y4wU7Je/PJgKWfE3P9sVdR2tMIQwSSrulIez5GDCU1jcRGK/QvmblA4J7b3681QW98ZQwSTLBpAIJ4Tv+Yc2bFf2qRWSjtcs5ELY9bO/uAEF8jVrzdHbVtrDBFM8tzfCGDnodydeUd/OHyyVe2L0xp5a/bEkO+fXoBK2nvtUFt3JYYIJhkzk7JOfJSbd3DnwcISV+NmzYYcqJXcAUNeerIQleTlrVHb1hpDBJP0Xk4ZyreTZX92fL4HYmPqTKzrbthWMKLjBtRiZv8ZtZU9MEQwSfpWytg16YviUoUzhBY3V61TaagLAwpa7sfPrNGoreiJIYJJUg5QxicTcviDO87VvcX4xhiwtV0Jfp6fiNqyqzFEMInLQxlLx+1WROF3CU1qdEwbWhUDjjXJx8/kx1Fb2wVDBLMolLFu/DrOk7j+DUmcGI8BRZfuwc+4aagtGoQhglkUylg7bhPnuGObdEmpFjc6AQOUS3fh56GXUPvqKgwRzHK8Ov7Wj1+L28MZcfU6JqfUbtQ3BiNu/gg/Tz2N2soeGCKY5b8X4+/YhDnEFyiANItPT3PV6NMSQ16/Dz+LBqC2vjOGCGbZ0gZ/3jdeKyjO84Artm1ylwZJ7va1MGTF3TtRuXJRLdTWd8YQwSxf9qGMJe8ePXUsNzYuplGz/2lav3GsC2N+enBtnpcLqox9CT959TBEMMv0+yjDuzAuy5XX+Hh8zMVtagqGKQtm1shbTdLPXiWhqGpinb79O+OntEopRghmeeZJAvGWFsUr4hJCUpRRbe+8+JTY79ser+2hcccWlDF2BkYIZnn1AcLIW1KUnXhKSmJKq8VXIkkoY9/j84vQTzDLqw8QZgooCEJgyqYfv1vznYI+glneGUEEKFz8xpcKOghmyWhHZMia98EPCsESTJK0uQER4+fn3jlOcASTDJ0rRJBtd60jKII5aky7nYiyfOQ+giGYwJXS/YHORJYVk5cRDCFEDXtdc7NbiDgZYzIJhhCCandcNbASkWnxyFyCIRglo8anEbneu5OgCAbdOCeBSDZmFkERjLn/X0S0db0LCIpgzE8NiGj3zCQ4giFNVjYiku26bifBEQyRjW2JYN6H/pcgCcYs7UvkUl54wkOQBGPGTyViKU/8QyFYgjFJeS4iVOETUwieYNCcYUSm74Zmo4NgUGJWMhFow+vvedBDMCplay0iTP4HU3egk2BYu9npRBDlk2/eKkQ3wTh54mkhHDwuQaes92f9hBFCSPo/2s2F2YoPJ9RED+/Mz5YoGCOEqkqDthM6uDBPwaFcVwc3Qds36cMSDBPMUWvkgw0xhbIns1JBehpB+nXuX0oIgWCeSneOa0PITi7NPZ0aO5igKB8unEtIBHMlDZ1YXwjF9jV78y5JGeJC2+nP1846RWgE88Xc/0g9jNq7/JvT+6pcP6I6WrKWLP6ilFAJ4ZH410mVMGLO1+uKYpKTRw+iQltWbF5yEBMI4VNv7IgG6HTo6a0ZHndCn34jhXLlbJv2bRHmEMLL1eWp9HoEzTv/5Y0K0OTWiTUoK+eHY7/mrcw+VIJpBAs0uOqWfm6CsfzVRQq/keG39UHNu3rJso0ezCZYpfl9w2ujIWfaK17OqjlqzMX4UN6Zs0ohDAQrJQ0deTnlO/3KE17OSblzQGc353i/fvUzwkOwWv2mk7rUJpAts2YV84d6f2qeXrUVMaWeTRnbFxMugi3iWgzo3bUKPkpWZX+0BLWkxqWnqyQeyCGMBDvF1K7WML1BjUYFR3JXZJzCDoLDCQ4nOJzgcILDCQ4nOJzgcILDCQ4nOJzgcILDCQ4nOJzgcILDCQ4nOJzgcILDCQ4nOJzgcILDCQ4nOJzgcILDCQ4nOJzgcILDCQ4nOJzgcILDCQ4nOJzgcILDCQ4nOJzgcILD/T/SEdEu0ebTqAAAAABJRU5ErkJggg==;" vertex="1" parent="1">
          <mxGeometry x="465.75" y="180" width="96" height="96" as="geometry" />
        </mxCell>
        <mxCell id="ZAxafMs7CnMFeSQ5WiWw-5" value="Fusion" style="rounded=1;whiteSpace=wrap;html=1;fillColor=#dae8fc;strokeColor=#BAC8D3;strokeWidth=3;" vertex="1" parent="1">
          <mxGeometry x="85" y="675" width="70" height="40" as="geometry" />
        </mxCell>
        <mxCell id="ZAxafMs7CnMFeSQ5WiWw-15" value="DEM" style="rounded=1;whiteSpace=wrap;html=1;fillColor=#ffe6cc;strokeWidth=3;strokeColor=#FAD7AC;" vertex="1" parent="1">
          <mxGeometry x="-35" y="545" width="60" height="30" as="geometry" />
        </mxCell>
        <mxCell id="ZAxafMs7CnMFeSQ5WiWw-79" value="" style="group" vertex="1" connectable="0" parent="1">
          <mxGeometry x="-140" y="890" width="553" height="252" as="geometry" />
        </mxCell>
        <mxCell id="ZAxafMs7CnMFeSQ5WiWw-26" value="" style="shape=cube;whiteSpace=wrap;html=1;boundedLbl=1;backgroundOutline=1;darkOpacity=0.05;darkOpacity2=0.1;strokeColor=#BAC8D3;strokeWidth=3;" vertex="1" parent="ZAxafMs7CnMFeSQ5WiWw-79">
          <mxGeometry y="52" width="30" height="90" as="geometry" />
        </mxCell>
        <mxCell id="ZAxafMs7CnMFeSQ5WiWw-36" value="1*1" style="whiteSpace=wrap;html=1;aspect=fixed;strokeWidth=1;fillColor=#ffe6cc;strokeColor=#d79b00;" vertex="1" parent="ZAxafMs7CnMFeSQ5WiWw-79">
          <mxGeometry x="150" width="40" height="40" as="geometry" />
        </mxCell>
        <mxCell id="ZAxafMs7CnMFeSQ5WiWw-49" style="edgeStyle=orthogonalEdgeStyle;rounded=0;orthogonalLoop=1;jettySize=auto;html=1;exitX=0;exitY=0;exitDx=30;exitDy=55;exitPerimeter=0;entryX=0;entryY=0.5;entryDx=0;entryDy=0;strokeColor=#FAD9D5;strokeWidth=2;" edge="1" parent="ZAxafMs7CnMFeSQ5WiWw-79" source="ZAxafMs7CnMFeSQ5WiWw-26" target="ZAxafMs7CnMFeSQ5WiWw-36">
          <mxGeometry relative="1" as="geometry" />
        </mxCell>
        <mxCell id="ZAxafMs7CnMFeSQ5WiWw-59" style="edgeStyle=orthogonalEdgeStyle;rounded=0;orthogonalLoop=1;jettySize=auto;html=1;exitX=1;exitY=0.5;exitDx=0;exitDy=0;strokeColor=#FAD9D5;strokeWidth=2;" edge="1" parent="ZAxafMs7CnMFeSQ5WiWw-79" source="ZAxafMs7CnMFeSQ5WiWw-37">
          <mxGeometry relative="1" as="geometry">
            <mxPoint x="220" y="102" as="targetPoint" />
          </mxGeometry>
        </mxCell>
        <mxCell id="ZAxafMs7CnMFeSQ5WiWw-37" value="1*1" style="whiteSpace=wrap;html=1;aspect=fixed;strokeWidth=1;fillColor=#ffe6cc;strokeColor=#d79b00;" vertex="1" parent="ZAxafMs7CnMFeSQ5WiWw-79">
          <mxGeometry x="150" y="82" width="40" height="40" as="geometry" />
        </mxCell>
        <mxCell id="ZAxafMs7CnMFeSQ5WiWw-38" value="3*3" style="whiteSpace=wrap;html=1;aspect=fixed;strokeWidth=1;fillColor=#ffe6cc;strokeColor=#d79b00;" vertex="1" parent="ZAxafMs7CnMFeSQ5WiWw-79">
          <mxGeometry x="218.25" y="70" width="55" height="55" as="geometry" />
        </mxCell>
        <mxCell id="ZAxafMs7CnMFeSQ5WiWw-62" style="edgeStyle=orthogonalEdgeStyle;rounded=0;orthogonalLoop=1;jettySize=auto;html=1;exitX=1;exitY=0.5;exitDx=0;exitDy=0;strokeColor=#FAD9D5;strokeWidth=2;" edge="1" parent="ZAxafMs7CnMFeSQ5WiWw-79" source="ZAxafMs7CnMFeSQ5WiWw-39">
          <mxGeometry relative="1" as="geometry">
            <mxPoint x="220" y="176.16666666666674" as="targetPoint" />
          </mxGeometry>
        </mxCell>
        <mxCell id="ZAxafMs7CnMFeSQ5WiWw-39" value="1*1" style="whiteSpace=wrap;html=1;aspect=fixed;strokeWidth=1;fillColor=#ffe6cc;strokeColor=#d79b00;" vertex="1" parent="ZAxafMs7CnMFeSQ5WiWw-79">
          <mxGeometry x="150" y="156.25" width="40" height="40" as="geometry" />
        </mxCell>
        <mxCell id="ZAxafMs7CnMFeSQ5WiWw-65" style="edgeStyle=orthogonalEdgeStyle;rounded=0;orthogonalLoop=1;jettySize=auto;html=1;exitX=1;exitY=0.5;exitDx=0;exitDy=0;strokeColor=#FAD9D5;strokeWidth=2;" edge="1" parent="ZAxafMs7CnMFeSQ5WiWw-79" source="ZAxafMs7CnMFeSQ5WiWw-40">
          <mxGeometry relative="1" as="geometry">
            <mxPoint x="380" y="97.83333333333348" as="targetPoint" />
          </mxGeometry>
        </mxCell>
        <mxCell id="ZAxafMs7CnMFeSQ5WiWw-40" value="3*3&lt;br&gt;rate=3" style="whiteSpace=wrap;html=1;aspect=fixed;strokeWidth=1;fillColor=#ffe6cc;strokeColor=#d79b00;" vertex="1" parent="ZAxafMs7CnMFeSQ5WiWw-79">
          <mxGeometry x="306.25" y="70" width="55" height="55" as="geometry" />
        </mxCell>
        <mxCell id="ZAxafMs7CnMFeSQ5WiWw-60" style="edgeStyle=orthogonalEdgeStyle;rounded=0;orthogonalLoop=1;jettySize=auto;html=1;exitX=1;exitY=0.5;exitDx=0;exitDy=0;entryX=0;entryY=0.5;entryDx=0;entryDy=0;strokeColor=#FAD9D5;strokeWidth=2;" edge="1" parent="ZAxafMs7CnMFeSQ5WiWw-79" source="ZAxafMs7CnMFeSQ5WiWw-38" target="ZAxafMs7CnMFeSQ5WiWw-40">
          <mxGeometry relative="1" as="geometry" />
        </mxCell>
        <mxCell id="ZAxafMs7CnMFeSQ5WiWw-63" style="edgeStyle=orthogonalEdgeStyle;rounded=0;orthogonalLoop=1;jettySize=auto;html=1;exitX=1;exitY=0.5;exitDx=0;exitDy=0;strokeColor=#FAD9D5;strokeWidth=2;" edge="1" parent="ZAxafMs7CnMFeSQ5WiWw-79" source="ZAxafMs7CnMFeSQ5WiWw-41">
          <mxGeometry relative="1" as="geometry">
            <mxPoint x="310" y="178.66666666666674" as="targetPoint" />
          </mxGeometry>
        </mxCell>
        <mxCell id="ZAxafMs7CnMFeSQ5WiWw-41" value="5*5" style="whiteSpace=wrap;html=1;aspect=fixed;strokeWidth=1;fillColor=#ffe6cc;strokeColor=#d79b00;" vertex="1" parent="ZAxafMs7CnMFeSQ5WiWw-79">
          <mxGeometry x="218.25" y="144.5" width="67.5" height="67.5" as="geometry" />
        </mxCell>
        <mxCell id="ZAxafMs7CnMFeSQ5WiWw-67" style="edgeStyle=orthogonalEdgeStyle;rounded=0;orthogonalLoop=1;jettySize=auto;html=1;exitX=1;exitY=0.5;exitDx=0;exitDy=0;strokeColor=#FAD9D5;strokeWidth=2;" edge="1" parent="ZAxafMs7CnMFeSQ5WiWw-79" source="ZAxafMs7CnMFeSQ5WiWw-42">
          <mxGeometry relative="1" as="geometry">
            <mxPoint x="400" y="179" as="targetPoint" />
          </mxGeometry>
        </mxCell>
        <mxCell id="ZAxafMs7CnMFeSQ5WiWw-42" value="5*5&lt;br&gt;rate=5" style="whiteSpace=wrap;html=1;aspect=fixed;strokeWidth=1;fillColor=#ffe6cc;strokeColor=#d79b00;" vertex="1" parent="ZAxafMs7CnMFeSQ5WiWw-79">
          <mxGeometry x="306.25" y="144.5" width="67.5" height="67.5" as="geometry" />
        </mxCell>
        <mxCell id="ZAxafMs7CnMFeSQ5WiWw-43" value="CA" style="ellipse;whiteSpace=wrap;html=1;aspect=fixed;strokeColor=#FFCE9F;strokeWidth=1;" vertex="1" parent="ZAxafMs7CnMFeSQ5WiWw-79">
          <mxGeometry x="230.75" y="4" width="30" height="30" as="geometry" />
        </mxCell>
        <mxCell id="ZAxafMs7CnMFeSQ5WiWw-55" style="edgeStyle=orthogonalEdgeStyle;rounded=0;orthogonalLoop=1;jettySize=auto;html=1;exitX=1;exitY=0.5;exitDx=0;exitDy=0;entryX=0;entryY=0.5;entryDx=0;entryDy=0;strokeColor=#FAD9D5;strokeWidth=2;" edge="1" parent="ZAxafMs7CnMFeSQ5WiWw-79" source="ZAxafMs7CnMFeSQ5WiWw-36" target="ZAxafMs7CnMFeSQ5WiWw-43">
          <mxGeometry relative="1" as="geometry" />
        </mxCell>
        <mxCell id="ZAxafMs7CnMFeSQ5WiWw-44" value="SA" style="ellipse;whiteSpace=wrap;html=1;aspect=fixed;strokeColor=#FFCE9F;strokeWidth=1;" vertex="1" parent="ZAxafMs7CnMFeSQ5WiWw-79">
          <mxGeometry x="318.75" y="4" width="30" height="30" as="geometry" />
        </mxCell>
        <mxCell id="ZAxafMs7CnMFeSQ5WiWw-56" style="edgeStyle=orthogonalEdgeStyle;rounded=0;orthogonalLoop=1;jettySize=auto;html=1;exitX=1;exitY=0.5;exitDx=0;exitDy=0;strokeColor=#FAD9D5;strokeWidth=2;" edge="1" parent="ZAxafMs7CnMFeSQ5WiWw-79" source="ZAxafMs7CnMFeSQ5WiWw-43" target="ZAxafMs7CnMFeSQ5WiWw-44">
          <mxGeometry relative="1" as="geometry" />
        </mxCell>
        <mxCell id="ZAxafMs7CnMFeSQ5WiWw-66" style="edgeStyle=orthogonalEdgeStyle;rounded=0;orthogonalLoop=1;jettySize=auto;html=1;exitX=1;exitY=0.5;exitDx=0;exitDy=0;strokeColor=#FAD9D5;strokeWidth=2;" edge="1" parent="ZAxafMs7CnMFeSQ5WiWw-79" source="ZAxafMs7CnMFeSQ5WiWw-45">
          <mxGeometry relative="1" as="geometry">
            <mxPoint x="430" y="97" as="targetPoint" />
          </mxGeometry>
        </mxCell>
        <mxCell id="ZAxafMs7CnMFeSQ5WiWw-45" value="CA" style="ellipse;whiteSpace=wrap;html=1;aspect=fixed;strokeColor=#FFCE9F;strokeWidth=1;" vertex="1" parent="ZAxafMs7CnMFeSQ5WiWw-79">
          <mxGeometry x="380" y="82" width="30" height="30" as="geometry" />
        </mxCell>
        <mxCell id="ZAxafMs7CnMFeSQ5WiWw-68" style="edgeStyle=orthogonalEdgeStyle;rounded=0;orthogonalLoop=1;jettySize=auto;html=1;exitX=1;exitY=0.5;exitDx=0;exitDy=0;strokeColor=#FAD9D5;strokeWidth=2;" edge="1" parent="ZAxafMs7CnMFeSQ5WiWw-79" source="ZAxafMs7CnMFeSQ5WiWw-46">
          <mxGeometry relative="1" as="geometry">
            <mxPoint x="450" y="176.16666666666674" as="targetPoint" />
          </mxGeometry>
        </mxCell>
        <mxCell id="ZAxafMs7CnMFeSQ5WiWw-46" value="CA" style="ellipse;whiteSpace=wrap;html=1;aspect=fixed;strokeColor=#FFCE9F;strokeWidth=1;" vertex="1" parent="ZAxafMs7CnMFeSQ5WiWw-79">
          <mxGeometry x="400" y="161.25" width="30" height="30" as="geometry" />
        </mxCell>
        <mxCell id="ZAxafMs7CnMFeSQ5WiWw-47" value="SA" style="ellipse;whiteSpace=wrap;html=1;aspect=fixed;strokeColor=#FFCE9F;strokeWidth=1;" vertex="1" parent="ZAxafMs7CnMFeSQ5WiWw-79">
          <mxGeometry x="430" y="82" width="30" height="30" as="geometry" />
        </mxCell>
        <mxCell id="ZAxafMs7CnMFeSQ5WiWw-48" value="SA" style="ellipse;whiteSpace=wrap;html=1;aspect=fixed;strokeColor=#FFCE9F;strokeWidth=1;" vertex="1" parent="ZAxafMs7CnMFeSQ5WiWw-79">
          <mxGeometry x="450" y="161.25" width="30" height="30" as="geometry" />
        </mxCell>
        <mxCell id="ZAxafMs7CnMFeSQ5WiWw-51" value="" style="endArrow=none;html=1;strokeColor=#FAD9D5;strokeWidth=2;" edge="1" parent="ZAxafMs7CnMFeSQ5WiWw-79">
          <mxGeometry width="50" height="50" relative="1" as="geometry">
            <mxPoint x="90" y="237" as="sourcePoint" />
            <mxPoint x="90" y="109" as="targetPoint" />
          </mxGeometry>
        </mxCell>
        <mxCell id="ZAxafMs7CnMFeSQ5WiWw-52" value="" style="endArrow=classic;html=1;strokeColor=#FAD9D5;strokeWidth=2;entryX=0;entryY=0.5;entryDx=0;entryDy=0;" edge="1" parent="ZAxafMs7CnMFeSQ5WiWw-79" target="ZAxafMs7CnMFeSQ5WiWw-39">
          <mxGeometry width="50" height="50" relative="1" as="geometry">
            <mxPoint x="90" y="177" as="sourcePoint" />
            <mxPoint x="420" y="37" as="targetPoint" />
          </mxGeometry>
        </mxCell>
        <mxCell id="ZAxafMs7CnMFeSQ5WiWw-54" value="" style="endArrow=classic;html=1;strokeColor=#FAD9D5;strokeWidth=2;" edge="1" parent="ZAxafMs7CnMFeSQ5WiWw-79">
          <mxGeometry width="50" height="50" relative="1" as="geometry">
            <mxPoint x="90" y="107" as="sourcePoint" />
            <mxPoint x="150" y="107" as="targetPoint" />
          </mxGeometry>
        </mxCell>
        <mxCell id="ZAxafMs7CnMFeSQ5WiWw-83" style="edgeStyle=orthogonalEdgeStyle;rounded=0;orthogonalLoop=1;jettySize=auto;html=1;exitX=1;exitY=0.5;exitDx=0;exitDy=0;entryX=0;entryY=0.5;entryDx=0;entryDy=0;strokeColor=#FAD9D5;strokeWidth=2;" edge="1" parent="ZAxafMs7CnMFeSQ5WiWw-79" source="ZAxafMs7CnMFeSQ5WiWw-69" target="ZAxafMs7CnMFeSQ5WiWw-73">
          <mxGeometry relative="1" as="geometry" />
        </mxCell>
        <mxCell id="ZAxafMs7CnMFeSQ5WiWw-69" value="C" style="ellipse;whiteSpace=wrap;html=1;aspect=fixed;strokeColor=#FFCE9F;strokeWidth=1;" vertex="1" parent="ZAxafMs7CnMFeSQ5WiWw-79">
          <mxGeometry x="483" y="84" width="27" height="27" as="geometry" />
        </mxCell>
        <mxCell id="ZAxafMs7CnMFeSQ5WiWw-70" style="edgeStyle=orthogonalEdgeStyle;rounded=0;orthogonalLoop=1;jettySize=auto;html=1;exitX=1;exitY=0.5;exitDx=0;exitDy=0;strokeColor=#FAD9D5;strokeWidth=2;" edge="1" parent="ZAxafMs7CnMFeSQ5WiWw-79" source="ZAxafMs7CnMFeSQ5WiWw-44" target="ZAxafMs7CnMFeSQ5WiWw-69">
          <mxGeometry relative="1" as="geometry" />
        </mxCell>
        <mxCell id="ZAxafMs7CnMFeSQ5WiWw-71" style="edgeStyle=orthogonalEdgeStyle;rounded=0;orthogonalLoop=1;jettySize=auto;html=1;exitX=1;exitY=0.5;exitDx=0;exitDy=0;entryX=0;entryY=0.5;entryDx=0;entryDy=0;strokeColor=#FAD9D5;strokeWidth=2;" edge="1" parent="ZAxafMs7CnMFeSQ5WiWw-79" source="ZAxafMs7CnMFeSQ5WiWw-47" target="ZAxafMs7CnMFeSQ5WiWw-69">
          <mxGeometry relative="1" as="geometry" />
        </mxCell>
        <mxCell id="ZAxafMs7CnMFeSQ5WiWw-72" style="edgeStyle=orthogonalEdgeStyle;rounded=0;orthogonalLoop=1;jettySize=auto;html=1;exitX=1;exitY=0.5;exitDx=0;exitDy=0;entryX=0.5;entryY=1;entryDx=0;entryDy=0;strokeColor=#FAD9D5;strokeWidth=2;" edge="1" parent="ZAxafMs7CnMFeSQ5WiWw-79" source="ZAxafMs7CnMFeSQ5WiWw-48" target="ZAxafMs7CnMFeSQ5WiWw-69">
          <mxGeometry relative="1" as="geometry">
            <Array as="points">
              <mxPoint x="496" y="176" />
              <mxPoint x="496" y="136" />
            </Array>
          </mxGeometry>
        </mxCell>
        <mxCell id="ZAxafMs7CnMFeSQ5WiWw-73" value="+" style="ellipse;whiteSpace=wrap;html=1;aspect=fixed;strokeColor=#FFCE9F;strokeWidth=1;" vertex="1" parent="ZAxafMs7CnMFeSQ5WiWw-79">
          <mxGeometry x="526" y="84" width="27" height="27" as="geometry" />
        </mxCell>
        <mxCell id="ZAxafMs7CnMFeSQ5WiWw-78" style="edgeStyle=orthogonalEdgeStyle;rounded=0;orthogonalLoop=1;jettySize=auto;html=1;exitX=1;exitY=0.5;exitDx=0;exitDy=0;strokeColor=#FAD9D5;strokeWidth=2;entryX=0.5;entryY=1;entryDx=0;entryDy=0;" edge="1" parent="ZAxafMs7CnMFeSQ5WiWw-79" source="ZAxafMs7CnMFeSQ5WiWw-76" target="ZAxafMs7CnMFeSQ5WiWw-73">
          <mxGeometry relative="1" as="geometry">
            <mxPoint x="600" y="117" as="targetPoint" />
            <Array as="points">
              <mxPoint x="540" y="232" />
              <mxPoint x="540" y="117" />
            </Array>
          </mxGeometry>
        </mxCell>
        <mxCell id="ZAxafMs7CnMFeSQ5WiWw-76" value="1*1" style="whiteSpace=wrap;html=1;aspect=fixed;strokeWidth=1;fillColor=#ffe6cc;strokeColor=#d79b00;" vertex="1" parent="ZAxafMs7CnMFeSQ5WiWw-79">
          <mxGeometry x="150" y="212" width="40" height="40" as="geometry" />
        </mxCell>
        <mxCell id="ZAxafMs7CnMFeSQ5WiWw-77" value="" style="endArrow=classic;html=1;strokeColor=#FAD9D5;strokeWidth=2;entryX=0;entryY=0.5;entryDx=0;entryDy=0;" edge="1" parent="ZAxafMs7CnMFeSQ5WiWw-79">
          <mxGeometry width="50" height="50" relative="1" as="geometry">
            <mxPoint x="90" y="237.75" as="sourcePoint" />
            <mxPoint x="150" y="237" as="targetPoint" />
          </mxGeometry>
        </mxCell>
      </root>
    </mxGraphModel>
  </diagram>
</mxfile>
